<svg width="352" height="300" viewBox="0 0 352 300" fill="none" xmlns="http://www.w3.org/2000/svg">
<path fill-rule="evenodd" clip-rule="evenodd" d="M264.902 300C286.807 273.926 300 240.29 300 203.571C300 120.729 232.843 53.5714 150 53.5714C67.1573 53.5714 0 120.729 0 203.571C0 240.29 13.1931 273.926 35.0976 300H264.902Z" fill="#F0F3FD"/>
<g opacity="0.15">
<path fill-rule="evenodd" clip-rule="evenodd" d="M209.58 161.909C209.417 162.104 209.31 162.34 209.273 162.592L204.452 195.407C204.362 196.022 204.697 196.62 205.268 196.865L209.581 198.713C209.647 198.742 209.714 198.765 209.782 198.782C209.965 198.829 210.12 198.979 210.12 199.168V209.291C210.12 209.669 210.427 209.976 210.805 209.976C211.183 209.976 211.49 209.669 211.49 209.291V197.464C211.49 197.461 211.49 197.457 211.49 197.454L211.49 160.578C211.49 160.258 211.091 160.113 210.885 160.357L209.58 161.909Z" fill="#A4A4A4"/>
<path fill-rule="evenodd" clip-rule="evenodd" d="M209.58 161.224C209.417 161.419 209.31 161.655 209.273 161.907L204.452 194.722C204.362 195.337 204.697 195.935 205.268 196.18L209.581 198.028C209.647 198.057 209.714 198.08 209.782 198.097C209.965 198.145 210.12 198.294 210.12 198.483V208.606C210.12 208.984 210.427 209.291 210.805 209.291C211.183 209.291 211.49 208.984 211.49 208.606V196.779C211.49 196.776 211.49 196.773 211.49 196.769L211.49 159.893C211.49 159.573 211.091 159.428 210.885 159.672L209.58 161.224Z" fill="#C4C4C4"/>
<path fill-rule="evenodd" clip-rule="evenodd" d="M170.746 233.608C170.996 233.652 171.254 233.626 171.49 233.533L202.32 221.3C202.897 221.071 203.248 220.482 203.175 219.865L202.619 215.206C202.61 215.134 202.597 215.064 202.578 214.997C202.528 214.815 202.579 214.606 202.743 214.511L211.51 209.45C211.837 209.261 211.949 208.842 211.76 208.514C211.571 208.187 211.152 208.074 210.825 208.263L200.581 214.178C200.578 214.179 200.576 214.18 200.574 214.182L194.218 217.851L168.638 232.62C168.361 232.78 168.435 233.198 168.75 233.254L170.746 233.608Z" fill="#A4A4A4"/>
<path fill-rule="evenodd" clip-rule="evenodd" d="M170.406 233.266C170.656 233.31 170.914 233.284 171.151 233.19L201.98 220.958C202.558 220.729 202.909 220.139 202.835 219.522L202.279 214.863C202.271 214.791 202.257 214.722 202.238 214.655C202.188 214.473 202.239 214.263 202.403 214.169L211.17 209.107C211.497 208.918 211.61 208.499 211.42 208.172C211.231 207.844 210.813 207.732 210.485 207.921L200.241 213.835C200.239 213.837 200.237 213.838 200.234 213.839L168.298 232.277C168.022 232.437 168.095 232.855 168.41 232.911L170.406 233.266Z" fill="#C4C4C4"/>
<path fill-rule="evenodd" clip-rule="evenodd" d="M252.701 231.956C252.614 231.717 252.463 231.507 252.263 231.349L226.255 210.766C225.768 210.381 225.082 210.372 224.585 210.744L220.828 213.555C220.77 213.598 220.716 213.645 220.668 213.694C220.535 213.829 220.328 213.889 220.164 213.795L211.398 208.733C211.07 208.544 210.651 208.656 210.462 208.984C210.273 209.311 210.385 209.73 210.713 209.919L220.956 215.833C220.959 215.835 220.961 215.836 220.963 215.838L252.899 234.276C253.176 234.436 253.501 234.163 253.392 233.863L252.701 231.956Z" fill="#A4A4A4"/>
<path fill-rule="evenodd" clip-rule="evenodd" d="M252.701 231.272C252.614 231.033 252.463 230.822 252.263 230.665L226.255 210.082C225.768 209.696 225.082 209.687 224.585 210.059L220.828 212.87C220.77 212.913 220.716 212.96 220.668 213.009C220.535 213.144 220.328 213.204 220.164 213.11L211.398 208.048C211.07 207.859 210.651 207.971 210.462 208.299C210.273 208.627 210.385 209.045 210.713 209.235L220.956 215.148C220.958 215.15 220.961 215.151 220.963 215.153L252.899 233.591C253.176 233.751 253.501 233.478 253.392 233.178L252.701 231.272Z" fill="#C4C4C4"/>
<path fill-rule="evenodd" clip-rule="evenodd" d="M212.562 211.38C213.541 210.962 214.226 209.991 214.226 208.859C214.226 207.346 213 206.12 211.487 206.12C209.974 206.12 208.747 207.346 208.747 208.859C208.747 209.991 209.433 210.961 210.411 211.38L204.98 302H217.993L212.562 211.38Z" fill="#A4A4A4"/>
<path fill-rule="evenodd" clip-rule="evenodd" d="M211.879 211.38C212.857 210.961 213.542 209.991 213.542 208.859C213.542 207.346 212.316 206.12 210.803 206.12C209.29 206.12 208.064 207.346 208.064 208.859C208.064 209.991 208.749 210.961 209.727 211.38L204.297 302H217.309L211.879 211.38Z" fill="#C4C4C4"/>
</g>
<g opacity="0.6">
<rect x="4" y="176" width="26.7138" height="62.9968" rx="13.3569" fill="#E9EBF2"/>
<rect x="16.7578" y="201.518" width="1.59486" height="98.4823" rx="0.797428" fill="#E1E2E5"/>
<rect x="23.3398" y="205.019" width="1.59486" height="13.443" rx="0.797428" transform="rotate(30 23.3398 205.019)" fill="#E1E2E5"/>
<rect width="1.59486" height="18.9128" rx="0.797428" transform="matrix(0.866025 -0.5 -0.5 -0.866025 17.1992 226.49)" fill="#E1E2E5"/>
</g>
<rect x="39" y="124" width="38.1994" height="90.0821" rx="19.0997" fill="#E9EBF2"/>
<rect x="57.2461" y="160.489" width="2.28056" height="140.825" rx="1.14028" fill="#E1E2E5"/>
<rect x="66.6523" y="165.496" width="2.28056" height="19.2228" rx="1.14028" transform="rotate(30 66.6523 165.496)" fill="#E1E2E5"/>
<rect width="2.28056" height="27.0444" rx="1.14028" transform="matrix(0.866025 -0.5 -0.5 -0.866025 57.875 196.198)" fill="#E1E2E5"/>
<path opacity="0.8" fill-rule="evenodd" clip-rule="evenodd" d="M90 102.932C90 103.001 89.9991 103.07 89.9974 103.138C94.2854 103.245 97.7288 106.754 97.7288 111.068C97.7288 115.381 94.2868 118.89 90 118.997V119H89.8045C89.8019 119 89.7992 119 89.7966 119C89.794 119 89.7914 119 89.7887 119H74.1356V118.997C74.068 118.999 74.0002 119 73.9322 119C69.5514 119 66 115.449 66 111.068C66 106.687 69.5514 103.136 73.9322 103.136C74.0011 103.136 74.0698 103.136 74.1382 103.138C74.1365 103.07 74.1356 103.001 74.1356 102.932C74.1356 98.5514 77.687 95 82.0678 95C86.4486 95 90 98.5514 90 102.932Z" fill="white"/>
<path opacity="0.6" fill-rule="evenodd" clip-rule="evenodd" d="M236.103 126.897C236.103 126.932 236.102 126.967 236.101 127.001C238.264 127.055 240 128.825 240 131C240 133.175 238.264 134.944 236.103 134.999V135H236.01C236.007 135 236.003 135 236 135C235.996 135 235.993 135 235.989 135H228.103V134.999C228.069 135 228.034 135 228 135C225.791 135 224 133.209 224 131C224 128.791 225.791 127 228 127C228.035 127 228.069 127 228.104 127.001C228.103 126.967 228.103 126.932 228.103 126.897C228.103 124.688 229.894 122.897 232.103 122.897C234.312 122.897 236.103 124.688 236.103 126.897Z" fill="white"/>
<path fill-rule="evenodd" clip-rule="evenodd" d="M169.2 80.8281C169.2 73.7434 174.943 68 182.028 68C187.286 68 191.804 71.1628 193.786 75.6895C195.061 74.7876 196.617 74.2576 198.298 74.2576C202.252 74.2576 205.52 77.1909 206.046 81H208.98C212.57 81 215.48 83.9101 215.48 87.5C215.48 91.0898 212.57 94 208.98 94H170.5C166.91 94 164 91.0898 164 87.5C164 84.3541 166.235 81.7302 169.203 81.1293C169.201 81.0292 169.2 80.9288 169.2 80.8281Z" fill="white"/>
<path opacity="0.6" fill-rule="evenodd" clip-rule="evenodd" d="M81.1212 166.233C81.1212 163.343 83.4641 161 86.3541 161C88.4988 161 90.3421 162.29 91.1503 164.137C91.6704 163.769 92.3055 163.553 92.991 163.553C94.6038 163.553 95.9371 164.749 96.1517 166.303H97.3485C98.8129 166.303 100 167.49 100 168.955C100 170.419 98.8129 171.606 97.3485 171.606H81.6515C80.1871 171.606 79 170.419 79 168.955C79 167.671 79.9116 166.601 81.1226 166.356C81.1217 166.315 81.1212 166.274 81.1212 166.233Z" fill="white"/>
<path fill-rule="evenodd" clip-rule="evenodd" d="M265.38 81.71C265.123 82.016 264.955 82.3876 264.897 82.7832L257.316 134.384C257.174 135.351 257.7 136.292 258.598 136.677L265.38 139.584C265.485 139.629 265.591 139.664 265.697 139.692C265.984 139.766 266.229 140.001 266.229 140.298V156.217C266.229 156.811 266.711 157.293 267.306 157.293C267.901 157.293 268.383 156.811 268.383 156.217V137.619C268.383 137.614 268.383 137.609 268.383 137.604L268.383 79.6164C268.383 79.114 267.756 78.8854 267.432 79.2699L265.38 81.71Z" fill="#DCDFE6"/>
<path fill-rule="evenodd" clip-rule="evenodd" d="M265.38 80.6331C265.123 80.9391 264.955 81.3107 264.897 81.7063L257.316 133.307C257.174 134.274 257.7 135.215 258.598 135.6L265.38 138.507C265.485 138.552 265.591 138.588 265.697 138.615C265.984 138.69 266.229 138.924 266.229 139.221V155.14C266.229 155.734 266.711 156.217 267.306 156.217C267.901 156.217 268.383 155.734 268.383 155.14V136.542C268.383 136.537 268.383 136.532 268.383 136.527L268.383 78.5395C268.383 78.0371 267.756 77.8085 267.432 78.193L265.38 80.6331Z" fill="#E9EBF2"/>
<path fill-rule="evenodd" clip-rule="evenodd" d="M204.319 194.455C204.713 194.525 205.118 194.484 205.49 194.336L253.968 175.101C254.876 174.741 255.428 173.814 255.313 172.844L254.439 165.518C254.425 165.405 254.404 165.295 254.374 165.19C254.295 164.903 254.376 164.574 254.633 164.426L268.419 156.466C268.934 156.169 269.111 155.51 268.813 154.995C268.516 154.48 267.857 154.304 267.342 154.601L251.234 163.901C251.23 163.903 251.227 163.905 251.223 163.907L201.004 192.901C200.569 193.152 200.685 193.81 201.18 193.898L204.319 194.455Z" fill="#DCDFE6"/>
<path fill-rule="evenodd" clip-rule="evenodd" d="M203.78 193.916C204.173 193.986 204.579 193.945 204.951 193.798L253.429 174.563C254.337 174.203 254.889 173.276 254.773 172.306L253.9 164.979C253.886 164.866 253.864 164.757 253.835 164.651C253.756 164.365 253.837 164.036 254.094 163.887L267.88 155.928C268.395 155.631 268.571 154.972 268.274 154.457C267.977 153.942 267.318 153.765 266.803 154.063L250.695 163.363C250.691 163.365 250.688 163.367 250.684 163.369L200.465 192.363C200.03 192.614 200.146 193.271 200.64 193.359L203.78 193.916Z" fill="#E9EBF2"/>
<path fill-rule="evenodd" clip-rule="evenodd" d="M333.188 191.858C333.052 191.482 332.813 191.152 332.5 190.903L291.603 158.537C290.836 157.931 289.758 157.916 288.976 158.502L283.068 162.922C282.976 162.99 282.892 163.063 282.816 163.141C282.607 163.353 282.282 163.448 282.024 163.299L268.239 155.34C267.724 155.043 267.065 155.219 266.768 155.734C266.47 156.249 266.647 156.908 267.162 157.205L283.269 166.504C283.273 166.507 283.277 166.509 283.281 166.512L333.5 195.505C333.935 195.756 334.446 195.328 334.275 194.855L333.188 191.858Z" fill="#DCDFE6"/>
<path fill-rule="evenodd" clip-rule="evenodd" d="M333.188 190.781C333.052 190.405 332.813 190.075 332.5 189.827L291.603 157.46C290.836 156.854 289.758 156.839 288.976 157.425L283.068 161.845C282.976 161.913 282.892 161.986 282.816 162.064C282.607 162.276 282.282 162.371 282.024 162.222L268.239 154.263C267.724 153.966 267.065 154.142 266.768 154.657C266.47 155.172 266.647 155.831 267.162 156.128L283.269 165.428C283.273 165.43 283.277 165.432 283.281 165.435L333.5 194.428C333.935 194.68 334.446 194.251 334.275 193.778L333.188 190.781Z" fill="#E9EBF2"/>
<path fill-rule="evenodd" clip-rule="evenodd" d="M270.075 159.501C271.613 158.844 272.691 157.317 272.691 155.538C272.691 153.159 270.762 151.231 268.383 151.231C266.004 151.231 264.075 153.159 264.075 155.538C264.075 157.317 265.153 158.844 266.692 159.501L258.152 302H278.614L270.075 159.501Z" fill="#DCDFE6"/>
<path fill-rule="evenodd" clip-rule="evenodd" d="M269 159.501C270.539 158.844 271.617 157.317 271.617 155.538C271.617 153.159 269.688 151.231 267.309 151.231C264.93 151.231 263.001 153.159 263.001 155.538C263.001 157.317 264.079 158.844 265.617 159.501L257.078 302H277.54L269 159.501Z" fill="#E9EBF2"/>
<path d="M279.906 299H268.967C256.293 299 261.761 295.234 264.968 294.503C257.801 291.947 263.082 287.131 266.704 289.14C264.441 280.375 272.174 282.201 273.683 287.131C276.7 282.019 281.981 284.575 278.775 290.053C284.244 287.679 284.244 292.427 281.981 293.887C287.45 294.8 284.394 296.512 281.376 296.512C284.96 298.52 282.319 299 279.906 299Z" fill="#D7D8DE"/>
<path d="M231.906 299H220.967C208.293 299 213.761 295.234 216.968 294.503C209.801 291.947 215.082 287.131 218.704 289.14C216.441 280.375 224.174 282.201 225.683 287.131C228.7 282.019 233.981 284.575 230.775 290.053C236.244 287.679 236.244 292.427 233.981 293.887C239.45 294.8 236.394 296.512 233.376 296.512C236.96 298.52 234.319 299 231.906 299Z" fill="#D7D8DE"/>
<path d="M264.537 300H243.115C218.295 300 229.003 292.938 235.282 291.569C221.247 286.776 231.588 277.746 238.683 281.512C234.25 265.079 249.394 268.503 252.348 277.746C258.258 268.16 268.6 272.953 262.321 283.224C273.032 278.774 273.032 287.675 268.6 290.414C279.311 292.126 273.324 295.335 267.415 295.335C274.432 299.101 269.262 300 264.537 300Z" fill="#E1E1E6"/>
<path d="M221.403 279.831C221.26 278.833 220.842 277.83 219.992 277.143C221.981 277.205 222.738 277.746 223.561 278.553C225.552 280.504 224.486 282.886 223.318 282.504C222.151 282.123 221.551 280.865 221.403 279.831Z" fill="#E5E6ED"/>
<path d="M221.246 277.672C223.327 278.69 224.115 281.384 224.396 282.717L224.131 282.784C223.776 279.991 222.371 278.235 221.246 277.672C221.21 277.654 221.173 277.637 221.137 277.621C221.173 277.636 221.209 277.653 221.246 277.672Z" fill="#727785"/>
<path d="M223.139 278.4C223.483 278.829 223.379 279.487 223.304 279.802L223.24 279.789C223.447 279.154 223.324 278.635 223.139 278.4C223.133 278.392 223.127 278.385 223.121 278.378C223.127 278.385 223.133 278.392 223.139 278.4Z" fill="#727785"/>
<path d="M222.138 278.774C222.309 279.023 222.651 279.076 222.818 279.089L222.82 279.054C222.475 279.058 222.232 278.908 222.138 278.774C222.135 278.77 222.132 278.765 222.129 278.761C222.132 278.765 222.135 278.77 222.138 278.774Z" fill="#727785"/>
<path d="M223.961 279.39C224.182 279.894 223.912 280.503 223.759 280.787L223.701 280.759C224.064 280.198 224.079 279.665 223.961 279.39C223.957 279.382 223.953 279.373 223.949 279.365C223.953 279.373 223.957 279.382 223.961 279.39Z" fill="#727785"/>
<path d="M222.242 279.721C222.548 280.177 223.207 280.276 223.529 280.3L223.537 280.235C222.868 280.241 222.411 279.967 222.242 279.721C222.237 279.713 222.232 279.705 222.227 279.697C222.231 279.705 222.237 279.713 222.242 279.721Z" fill="#727785"/>
<path d="M222.229 280.768C222.656 281.433 223.543 281.599 223.976 281.644L223.983 281.552C223.088 281.536 222.464 281.127 222.229 280.768C222.221 280.757 222.214 280.745 222.207 280.734C222.214 280.745 222.221 280.757 222.229 280.768Z" fill="#727785"/>
<path d="M280.011 282.284C280.592 281.46 281.421 280.757 282.49 280.531C280.691 279.682 279.77 279.821 278.67 280.165C276.01 280.997 275.877 283.604 277.09 283.795C278.304 283.986 279.41 283.137 280.011 282.284Z" fill="#E5E6ED"/>
<path d="M281.134 280.432C278.817 280.393 276.89 282.434 276.034 283.494L276.24 283.674C277.826 281.348 279.876 280.422 281.134 280.432C281.174 280.432 281.214 280.434 281.254 280.436C281.215 280.433 281.175 280.432 281.134 280.432Z" fill="#727785"/>
<path d="M279.114 280.22C278.613 280.446 278.407 281.079 278.331 281.393L278.393 281.411C278.498 280.751 278.844 280.345 279.114 280.22C279.123 280.216 279.132 280.212 279.141 280.208C279.132 280.212 279.123 280.215 279.114 280.22Z" fill="#727785"/>
<path d="M279.838 281.01C279.572 281.154 279.243 281.046 279.089 280.981L279.103 280.949C279.408 281.109 279.693 281.087 279.838 281.01C279.842 281.007 279.847 281.004 279.852 281.002C279.847 281.004 279.843 281.007 279.838 281.01Z" fill="#727785"/>
<path d="M277.935 280.73C277.509 281.078 277.472 281.743 277.48 282.066L277.544 282.067C277.476 281.402 277.705 280.921 277.935 280.73C277.942 280.724 277.949 280.718 277.957 280.712C277.95 280.718 277.942 280.724 277.935 280.73Z" fill="#727785"/>
<path d="M279.315 281.805C278.835 282.073 278.203 281.862 277.905 281.736L277.928 281.675C278.521 281.984 279.053 281.948 279.315 281.805C279.323 281.801 279.332 281.796 279.34 281.791C279.332 281.796 279.324 281.801 279.315 281.805Z" fill="#727785"/>
<path d="M278.852 282.744C278.169 283.142 277.304 282.887 276.897 282.73L276.932 282.645C277.737 283.037 278.479 282.957 278.852 282.744C278.863 282.738 278.875 282.73 278.887 282.723C278.875 282.73 278.864 282.737 278.852 282.744Z" fill="#727785"/>
<path d="M257.103 265.924C257.173 264.918 257.517 263.888 258.315 263.14C256.336 263.346 255.621 263.942 254.858 264.806C253.014 266.896 254.251 269.195 255.387 268.729C256.524 268.264 257.03 266.965 257.103 265.924Z" fill="#E5E6ED"/>
<path d="M257.102 263.759C255.1 264.926 254.51 267.67 254.327 269.02L254.596 269.067C254.747 266.256 256.021 264.402 257.102 263.759C257.137 263.739 257.172 263.719 257.207 263.7C257.172 263.718 257.137 263.738 257.102 263.759Z" fill="#727785"/>
<path d="M255.265 264.623C254.953 265.076 255.105 265.725 255.202 266.033L255.265 266.016C255.013 265.397 255.098 264.87 255.265 264.623C255.27 264.615 255.276 264.607 255.281 264.599C255.276 264.607 255.27 264.615 255.265 264.623Z" fill="#727785"/>
<path d="M256.293 264.923C256.141 265.184 255.803 265.262 255.638 265.286L255.633 265.251C255.977 265.23 256.209 265.064 256.293 264.923C256.296 264.918 256.298 264.914 256.301 264.909C256.298 264.914 256.296 264.918 256.293 264.923Z" fill="#727785"/>
<path d="M254.521 265.67C254.337 266.188 254.651 266.776 254.824 267.049L254.88 267.016C254.477 266.484 254.424 265.953 254.521 265.67C254.524 265.661 254.528 265.652 254.531 265.644C254.528 265.652 254.524 265.661 254.521 265.67Z" fill="#727785"/>
<path d="M256.26 265.875C255.988 266.352 255.338 266.499 255.018 266.546L255.006 266.482C255.673 266.439 256.11 266.133 256.26 265.875C256.264 265.866 256.269 265.858 256.273 265.85C256.269 265.858 256.265 265.866 256.26 265.875Z" fill="#727785"/>
<path d="M256.348 266.919C255.97 267.612 255.098 267.842 254.669 267.919L254.655 267.828C255.547 267.746 256.14 267.293 256.348 266.919C256.355 266.907 256.361 266.895 256.367 266.882C256.361 266.894 256.355 266.906 256.348 266.919Z" fill="#727785"/>
<path d="M235.499 266.729C235.465 266.137 235.27 265.528 234.806 265.082C235.969 265.218 236.386 265.573 236.828 266.088C237.898 267.331 237.154 268.674 236.488 268.392C235.823 268.11 235.534 267.342 235.499 266.729Z" fill="#E5E6ED"/>
<path d="M235.514 265.455C236.684 266.156 237.011 267.775 237.109 268.571L236.95 268.597C236.882 266.941 236.146 265.842 235.514 265.455C235.494 265.443 235.474 265.431 235.453 265.42C235.473 265.431 235.494 265.443 235.514 265.455Z" fill="#727785"/>
<path d="M236.588 265.977C236.768 266.246 236.674 266.626 236.614 266.807L236.577 266.796C236.73 266.434 236.684 266.124 236.588 265.977C236.585 265.972 236.581 265.967 236.578 265.963C236.581 265.967 236.585 265.972 236.588 265.977Z" fill="#727785"/>
<path d="M235.981 266.146C236.069 266.3 236.267 266.349 236.364 266.364L236.367 266.344C236.165 266.329 236.029 266.229 235.981 266.146C235.979 266.143 235.978 266.14 235.977 266.138C235.978 266.14 235.979 266.143 235.981 266.146Z" fill="#727785"/>
<path d="M237.021 266.598C237.126 266.905 236.937 267.248 236.833 267.407L236.8 267.388C237.041 267.077 237.076 266.765 237.021 266.598C237.019 266.593 237.018 266.588 237.016 266.583C237.018 266.588 237.02 266.593 237.021 266.598Z" fill="#727785"/>
<path d="M235.996 266.706C236.153 266.989 236.534 267.08 236.722 267.11L236.729 267.072C236.337 267.042 236.083 266.859 235.996 266.706C235.993 266.701 235.991 266.696 235.988 266.691C235.991 266.696 235.993 266.701 235.996 266.706Z" fill="#727785"/>
<path d="M235.937 267.32C236.154 267.73 236.666 267.872 236.917 267.92L236.926 267.867C236.402 267.812 236.057 267.541 235.937 267.32C235.933 267.312 235.929 267.305 235.926 267.298C235.929 267.305 235.933 267.312 235.937 267.32Z" fill="#727785"/>
<path d="M23.5906 300H12.9768C0.679405 300 5.98494 296.501 9.09588 295.823C2.14201 293.448 7.26591 288.974 10.7808 290.84C8.58483 282.698 16.0877 284.394 17.5517 288.974C20.4796 284.225 25.6035 286.599 22.4926 291.688C27.7995 289.483 27.7995 293.893 25.6035 295.25C30.9104 296.099 27.9445 297.689 25.0166 297.689C28.4935 299.555 25.9315 300 23.5906 300Z" fill="#EDEEF2"/>
<path d="M29.4768 299.505H24.057C17.7774 299.505 20.4867 297.639 22.0752 297.277C18.5243 296.01 21.1408 293.624 22.9356 294.619C21.8143 290.277 25.6455 291.181 26.3931 293.624C27.8882 291.091 30.5047 292.358 28.9161 295.072C31.626 293.896 31.626 296.248 30.5047 296.971C33.2146 297.424 31.7 298.272 30.2049 298.272C31.9804 299.267 30.6722 299.505 29.4768 299.505Z" fill="#DFE0E6"/>
<path d="M5.24651 287.448C4.95871 287.04 4.54825 286.692 4.01831 286.58C4.90987 286.159 5.36591 286.228 5.91116 286.398C7.22907 286.811 7.29497 288.102 6.69376 288.197C6.09255 288.291 5.54469 287.871 5.24651 287.448Z" fill="#E5E6ED"/>
<path d="M4.69243 286.531C5.84036 286.511 6.79484 287.523 7.21906 288.048L7.11718 288.137C6.33129 286.984 5.31571 286.526 4.69243 286.531C4.67261 286.531 4.65274 286.532 4.63281 286.532C4.65225 286.531 4.67213 286.531 4.69243 286.531Z" fill="#727785"/>
<path d="M5.69267 286.425C5.94093 286.538 6.0432 286.851 6.08101 287.007L6.05011 287.016C5.99831 286.689 5.82688 286.488 5.69267 286.425C5.68839 286.423 5.68406 286.422 5.67969 286.42C5.68397 286.421 5.6883 286.423 5.69267 286.425Z" fill="#727785"/>
<path d="M5.331 286.817C5.46254 286.888 5.62562 286.835 5.70205 286.802L5.69495 286.787C5.54396 286.866 5.40272 286.855 5.331 286.817C5.32873 286.816 5.32647 286.814 5.32422 286.813C5.3264 286.814 5.32867 286.815 5.331 286.817Z" fill="#727785"/>
<path d="M6.27672 286.678C6.48771 286.85 6.50573 287.18 6.50218 287.34L6.47006 287.341C6.5042 287.011 6.3904 286.773 6.27672 286.678C6.27308 286.675 6.26938 286.672 6.26562 286.669C6.26932 286.672 6.27302 286.675 6.27672 286.678Z" fill="#727785"/>
<path d="M5.59038 287.211C5.82835 287.344 6.14131 287.239 6.28885 287.177L6.27753 287.147C5.98404 287.3 5.72023 287.282 5.59038 287.211C5.58627 287.209 5.58219 287.206 5.57812 287.204C5.58207 287.206 5.58615 287.209 5.59038 287.211Z" fill="#727785"/>
<path d="M5.82212 287.676C6.16039 287.873 6.58906 287.747 6.7904 287.669L6.77293 287.627C6.37411 287.821 6.00661 287.782 5.82212 287.676C5.81628 287.673 5.81047 287.669 5.80469 287.666C5.8103 287.669 5.81611 287.673 5.82212 287.676Z" fill="#727785"/>
<path d="M29.9801 290.916C30.2678 290.508 30.6783 290.16 31.2082 290.048C30.3167 289.627 29.8607 289.696 29.3154 289.867C27.9975 290.279 27.9316 291.571 28.5328 291.665C29.134 291.759 29.6819 291.339 29.9801 290.916Z" fill="#E5E6ED"/>
<path d="M30.5341 289.999C29.3862 289.979 28.4317 290.991 28.0075 291.516L28.1094 291.605C28.8953 290.452 29.9109 289.994 30.5341 289.999C30.554 289.999 30.5738 290 30.5938 290.001C30.5743 290 30.5544 289.999 30.5341 289.999Z" fill="#727785"/>
<path d="M29.5339 289.894C29.2856 290.006 29.1834 290.32 29.1456 290.475L29.1765 290.484C29.2283 290.157 29.3997 289.956 29.5339 289.894C29.5382 289.892 29.5425 289.89 29.5469 289.888C29.5426 289.89 29.5383 289.892 29.5339 289.894Z" fill="#727785"/>
<path d="M29.8956 290.285C29.764 290.356 29.6009 290.303 29.5245 290.271L29.5316 290.255C29.6826 290.334 29.8238 290.323 29.8956 290.285C29.8978 290.284 29.9001 290.282 29.9023 290.281C29.9002 290.282 29.8979 290.284 29.8956 290.285Z" fill="#727785"/>
<path d="M28.9498 290.146C28.7388 290.319 28.7208 290.648 28.7244 290.808L28.7565 290.809C28.7224 290.48 28.8362 290.241 28.9498 290.146C28.9535 290.143 28.9572 290.14 28.9609 290.138C28.9572 290.14 28.9535 290.143 28.9498 290.146Z" fill="#727785"/>
<path d="M29.6362 290.679C29.3982 290.812 29.0853 290.707 28.9377 290.645L28.949 290.615C29.2425 290.768 29.5063 290.75 29.6362 290.679C29.6403 290.677 29.6444 290.675 29.6484 290.672C29.6445 290.675 29.6404 290.677 29.6362 290.679Z" fill="#727785"/>
<path d="M29.4044 291.145C29.0662 291.341 28.6375 291.215 28.4362 291.138L28.4536 291.095C28.8525 291.29 29.22 291.25 29.4044 291.145C29.4103 291.141 29.4161 291.138 29.4219 291.134C29.4163 291.138 29.4104 291.141 29.4044 291.145Z" fill="#727785"/>
<path d="M18.9123 285.098C18.947 284.6 19.1176 284.09 19.5129 283.719C18.5324 283.821 18.1779 284.116 17.7999 284.545C16.8862 285.58 17.4991 286.719 18.0623 286.488C18.6254 286.258 18.8763 285.614 18.9123 285.098Z" fill="#E5E6ED"/>
<path d="M18.9129 284.026C17.921 284.604 17.6286 285.964 17.5377 286.632L17.6711 286.656C17.7462 285.263 18.3773 284.345 18.9129 284.026C18.93 284.016 18.9473 284.006 18.9648 283.997C18.9476 284.006 18.9303 284.015 18.9129 284.026Z" fill="#727785"/>
<path d="M18.0035 284.454C17.8493 284.678 17.9244 285 17.9727 285.152L18.0037 285.144C17.8786 284.837 17.9209 284.576 18.0035 284.454C18.0062 284.45 18.0089 284.446 18.0117 284.442C18.0089 284.446 18.0062 284.45 18.0035 284.454Z" fill="#727785"/>
<path d="M18.5118 284.603C18.4363 284.732 18.269 284.77 18.187 284.783L18.1848 284.765C18.3551 284.755 18.4702 284.672 18.5118 284.603C18.5131 284.6 18.5144 284.598 18.5156 284.596C18.5144 284.598 18.5132 284.6 18.5118 284.603Z" fill="#727785"/>
<path d="M17.6318 284.973C17.5406 285.23 17.6959 285.521 17.7819 285.656L17.8097 285.64C17.6099 285.376 17.5836 285.113 17.6318 284.973C17.6333 284.968 17.635 284.964 17.6367 284.96C17.635 284.964 17.6333 284.968 17.6318 284.973Z" fill="#727785"/>
<path d="M18.4932 285.074C18.3584 285.311 18.0364 285.383 17.878 285.407L17.8721 285.375C18.2024 285.354 18.4188 285.202 18.4932 285.074C18.4955 285.07 18.4978 285.066 18.5 285.062C18.4979 285.066 18.4956 285.07 18.4932 285.074Z" fill="#727785"/>
<path d="M18.5374 285.591C18.3501 285.935 17.9179 286.049 17.7056 286.087L17.6987 286.042C18.1405 286.001 18.4341 285.777 18.5374 285.591C18.5406 285.585 18.5438 285.579 18.5469 285.573C18.5439 285.579 18.5408 285.585 18.5374 285.591Z" fill="#727785"/>
<path d="M8.46734 285.002C8.45054 284.708 8.3539 284.407 8.12405 284.186C8.70017 284.253 8.90659 284.429 9.12585 284.684C9.65584 285.3 9.28696 285.966 8.95731 285.826C8.62766 285.686 8.48474 285.306 8.46734 285.002Z" fill="#E5E6ED"/>
<path d="M8.47569 284.371C9.05505 284.718 9.21714 285.52 9.26571 285.914L9.18708 285.927C9.15307 285.107 8.78847 284.562 8.47569 284.371C8.46569 284.365 8.45556 284.359 8.44531 284.353C8.45537 284.359 8.4655 284.364 8.47569 284.371Z" fill="#727785"/>
<path d="M9.00864 284.629C9.09773 284.762 9.05121 284.951 9.02169 285.04L9.00351 285.035C9.07934 284.856 9.05634 284.702 9.00864 284.629C9.0071 284.627 9.00553 284.625 9.00391 284.622C9.00551 284.625 9.00709 284.627 9.00864 284.629Z" fill="#727785"/>
<path d="M8.70532 284.713C8.7488 284.79 8.84693 284.814 8.89509 284.821L8.8965 284.811C8.79643 284.804 8.72927 284.754 8.70532 284.713C8.70457 284.712 8.70384 284.71 8.70312 284.709C8.70381 284.71 8.70455 284.712 8.70532 284.713Z" fill="#727785"/>
<path d="M9.22156 284.937C9.27333 285.089 9.17983 285.259 9.12825 285.338L9.11203 285.328C9.2315 285.174 9.24891 285.02 9.22156 284.937C9.22067 284.935 9.21973 284.932 9.21875 284.929C9.21973 284.932 9.22067 284.935 9.22156 284.937Z" fill="#727785"/>
<path d="M8.71486 284.991C8.79246 285.131 8.98133 285.176 9.0744 285.191L9.0781 285.172C8.8839 285.157 8.75768 285.066 8.71486 284.991C8.71352 284.988 8.71221 284.986 8.71094 284.983C8.71215 284.986 8.71346 284.988 8.71486 284.991Z" fill="#727785"/>
<path d="M8.68513 285.295C8.79285 285.498 9.04626 285.568 9.17091 285.592L9.1753 285.566C8.91567 285.539 8.74453 285.404 8.68513 285.295C8.68327 285.291 8.68146 285.287 8.67969 285.284C8.68138 285.287 8.6832 285.291 8.68513 285.295Z" fill="#727785"/>
<path d="M26.7592 288.47C26.776 288.177 26.8727 287.875 27.1025 287.654C26.5264 287.721 26.32 287.898 26.1007 288.152C25.5707 288.768 25.9396 289.434 26.2693 289.294C26.5989 289.154 26.7418 288.774 26.7592 288.47Z" fill="#E5E6ED"/>
<path d="M26.7509 287.839C26.1715 288.186 26.0094 288.988 25.9608 289.383L26.0395 289.395C26.0735 288.575 26.4381 288.03 26.7509 287.839C26.7609 287.833 26.771 287.827 26.7812 287.821C26.7712 287.827 26.7611 287.833 26.7509 287.839Z" fill="#727785"/>
<path d="M26.2179 288.097C26.1288 288.231 26.1753 288.419 26.2049 288.509L26.223 288.503C26.1472 288.324 26.1702 288.17 26.2179 288.097C26.2195 288.095 26.221 288.093 26.2227 288.091C26.2211 288.093 26.2195 288.095 26.2179 288.097Z" fill="#727785"/>
<path d="M26.5212 288.181C26.4778 288.258 26.3796 288.282 26.3315 288.289L26.3301 288.279C26.4301 288.272 26.4973 288.223 26.5212 288.181C26.522 288.18 26.5227 288.179 26.5234 288.177C26.5228 288.179 26.522 288.18 26.5212 288.181Z" fill="#727785"/>
<path d="M26.005 288.405C25.9532 288.557 26.0467 288.727 26.0983 288.806L26.1145 288.796C25.9951 288.643 25.9777 288.488 26.005 288.405C26.0059 288.403 26.0068 288.4 26.0078 288.398C26.0068 288.4 26.0059 288.403 26.005 288.405Z" fill="#727785"/>
<path d="M26.5117 288.459C26.4341 288.599 26.2452 288.644 26.1522 288.659L26.1485 288.64C26.3427 288.625 26.4689 288.534 26.5117 288.459C26.513 288.456 26.5144 288.454 26.5156 288.451C26.5144 288.454 26.5131 288.456 26.5117 288.459Z" fill="#727785"/>
<path d="M26.5414 288.763C26.4337 288.966 26.1803 289.037 26.0557 289.06L26.0513 289.034C26.3109 289.007 26.482 288.873 26.5414 288.763C26.5433 288.759 26.5451 288.756 26.5469 288.752C26.5452 288.756 26.5434 288.759 26.5414 288.763Z" fill="#727785"/>
<path d="M64.5906 300H53.9768C41.6794 300 46.9849 296.501 50.0959 295.823C43.142 293.448 48.2659 288.974 51.7808 290.84C49.5848 282.698 57.0877 284.394 58.5517 288.974C61.4796 284.225 66.6035 286.599 63.4926 291.688C68.7995 289.483 68.7995 293.893 66.6035 295.25C71.9104 296.099 68.9445 297.689 66.0166 297.689C69.4935 299.555 66.9315 300 64.5906 300Z" fill="#EDEEF2"/>
<path d="M70.4768 299.505H65.057C58.7774 299.505 61.4867 297.639 63.0752 297.277C59.5243 296.01 62.1408 293.624 63.9356 294.619C62.8143 290.277 66.6455 291.181 67.3931 293.624C68.8882 291.091 71.5047 292.358 69.9161 295.072C72.626 293.896 72.626 296.248 71.5047 296.971C74.2146 297.424 72.7 298.272 71.2049 298.272C72.9804 299.267 71.6722 299.505 70.4768 299.505Z" fill="#DFE0E6"/>
<path d="M46.2465 287.448C45.9587 287.04 45.5483 286.692 45.0183 286.58C45.9099 286.159 46.3659 286.228 46.9112 286.398C48.2291 286.811 48.295 288.102 47.6938 288.197C47.0925 288.291 46.5447 287.871 46.2465 287.448Z" fill="#E5E6ED"/>
<path d="M45.6924 286.531C46.8404 286.511 47.7948 287.523 48.2191 288.048L48.1172 288.137C47.3313 286.984 46.3157 286.526 45.6924 286.531C45.6726 286.531 45.6527 286.532 45.6328 286.532C45.6523 286.531 45.6721 286.531 45.6924 286.531Z" fill="#727785"/>
<path d="M46.6927 286.425C46.9409 286.538 47.0432 286.851 47.081 287.007L47.0501 287.016C46.9983 286.689 46.8269 286.488 46.6927 286.425C46.6884 286.423 46.6841 286.422 46.6797 286.42C46.684 286.421 46.6883 286.423 46.6927 286.425Z" fill="#727785"/>
<path d="M46.331 286.817C46.4625 286.888 46.6256 286.835 46.702 286.802L46.6949 286.787C46.544 286.866 46.4027 286.855 46.331 286.817C46.3287 286.816 46.3265 286.814 46.3242 286.813C46.3264 286.814 46.3287 286.815 46.331 286.817Z" fill="#727785"/>
<path d="M47.2767 286.678C47.4877 286.85 47.5057 287.18 47.5022 287.34L47.4701 287.341C47.5042 287.011 47.3904 286.773 47.2767 286.678C47.2731 286.675 47.2694 286.672 47.2656 286.669C47.2693 286.672 47.273 286.675 47.2767 286.678Z" fill="#727785"/>
<path d="M46.5904 287.211C46.8284 287.344 47.1413 287.239 47.2888 287.177L47.2775 287.147C46.984 287.3 46.7202 287.282 46.5904 287.211C46.5863 287.209 46.5822 287.206 46.5781 287.204C46.5821 287.206 46.5862 287.209 46.5904 287.211Z" fill="#727785"/>
<path d="M46.8221 287.676C47.1604 287.873 47.5891 287.747 47.7904 287.669L47.7729 287.627C47.3741 287.821 47.0066 287.782 46.8221 287.676C46.8163 287.673 46.8105 287.669 46.8047 287.666C46.8103 287.669 46.8161 287.673 46.8221 287.676Z" fill="#727785"/>
<path d="M70.9801 290.916C71.2678 290.508 71.6783 290.16 72.2082 290.048C71.3167 289.627 70.8607 289.696 70.3154 289.867C68.9975 290.279 68.9316 291.571 69.5328 291.665C70.134 291.759 70.6819 291.339 70.9801 290.916Z" fill="#E5E6ED"/>
<path d="M71.5341 289.999C70.3862 289.979 69.4317 290.991 69.0075 291.516L69.1094 291.605C69.8953 290.452 70.9109 289.994 71.5341 289.999C71.554 289.999 71.5738 290 71.5938 290.001C71.5743 290 71.5544 289.999 71.5341 289.999Z" fill="#727785"/>
<path d="M70.5339 289.894C70.2856 290.006 70.1834 290.32 70.1456 290.475L70.1765 290.484C70.2283 290.157 70.3997 289.956 70.5339 289.894C70.5382 289.892 70.5425 289.89 70.5469 289.888C70.5426 289.89 70.5383 289.892 70.5339 289.894Z" fill="#727785"/>
<path d="M70.8956 290.285C70.764 290.356 70.6009 290.303 70.5245 290.271L70.5316 290.255C70.6826 290.334 70.8238 290.323 70.8956 290.285C70.8978 290.284 70.9001 290.282 70.9023 290.281C70.9002 290.282 70.8979 290.284 70.8956 290.285Z" fill="#727785"/>
<path d="M69.9498 290.146C69.7388 290.319 69.7208 290.648 69.7244 290.808L69.7565 290.809C69.7224 290.48 69.8362 290.241 69.9498 290.146C69.9535 290.143 69.9572 290.14 69.9609 290.138C69.9572 290.14 69.9535 290.143 69.9498 290.146Z" fill="#727785"/>
<path d="M70.6362 290.679C70.3982 290.812 70.0853 290.707 69.9377 290.645L69.949 290.615C70.2425 290.768 70.5063 290.75 70.6362 290.679C70.6403 290.677 70.6444 290.675 70.6484 290.672C70.6445 290.675 70.6404 290.677 70.6362 290.679Z" fill="#727785"/>
<path d="M70.4044 291.145C70.0662 291.341 69.6375 291.215 69.4362 291.138L69.4536 291.095C69.8525 291.29 70.22 291.25 70.4044 291.145C70.4103 291.141 70.4161 291.138 70.4219 291.134C70.4163 291.138 70.4104 291.141 70.4044 291.145Z" fill="#727785"/>
<path d="M59.9123 285.098C59.947 284.6 60.1176 284.09 60.5129 283.719C59.5324 283.821 59.1779 284.116 58.7999 284.545C57.8862 285.58 58.4991 286.719 59.0623 286.488C59.6254 286.258 59.8763 285.614 59.9123 285.098Z" fill="#E5E6ED"/>
<path d="M59.9129 284.026C58.921 284.604 58.6286 285.964 58.5377 286.632L58.6711 286.656C58.7462 285.263 59.3773 284.345 59.9129 284.026C59.93 284.016 59.9473 284.006 59.9648 283.997C59.9476 284.006 59.9303 284.015 59.9129 284.026Z" fill="#727785"/>
<path d="M59.0035 284.454C58.8493 284.678 58.9244 285 58.9727 285.152L59.0037 285.144C58.8786 284.837 58.9209 284.576 59.0035 284.454C59.0062 284.45 59.0089 284.446 59.0117 284.442C59.0089 284.446 59.0062 284.45 59.0035 284.454Z" fill="#727785"/>
<path d="M59.5118 284.603C59.4363 284.732 59.269 284.77 59.187 284.783L59.1848 284.765C59.3551 284.755 59.4702 284.672 59.5118 284.603C59.5131 284.6 59.5144 284.598 59.5156 284.596C59.5144 284.598 59.5132 284.6 59.5118 284.603Z" fill="#727785"/>
<path d="M58.6318 284.973C58.5406 285.23 58.6959 285.521 58.7819 285.656L58.8097 285.64C58.6099 285.376 58.5836 285.113 58.6318 284.973C58.6333 284.968 58.635 284.964 58.6367 284.96C58.635 284.964 58.6333 284.968 58.6318 284.973Z" fill="#727785"/>
<path d="M59.4932 285.074C59.3584 285.311 59.0364 285.383 58.878 285.407L58.8721 285.375C59.2024 285.354 59.4188 285.202 59.4932 285.074C59.4955 285.07 59.4978 285.066 59.5 285.062C59.4979 285.066 59.4956 285.07 59.4932 285.074Z" fill="#727785"/>
<path d="M59.5374 285.591C59.3501 285.935 58.9179 286.049 58.7056 286.087L58.6987 286.042C59.1405 286.001 59.4341 285.777 59.5374 285.591C59.5406 285.585 59.5438 285.579 59.5469 285.573C59.5439 285.579 59.5408 285.585 59.5374 285.591Z" fill="#727785"/>
<path d="M49.4673 285.002C49.4505 284.708 49.3539 284.407 49.1241 284.186C49.7002 284.253 49.9066 284.429 50.1259 284.684C50.6558 285.3 50.287 285.966 49.9573 285.826C49.6277 285.686 49.4847 285.306 49.4673 285.002Z" fill="#E5E6ED"/>
<path d="M49.4757 284.371C50.0551 284.718 50.2171 285.52 50.2657 285.914L50.1871 285.927C50.1531 285.107 49.7885 284.562 49.4757 284.371C49.4657 284.365 49.4556 284.359 49.4453 284.353C49.4554 284.359 49.4655 284.364 49.4757 284.371Z" fill="#727785"/>
<path d="M50.0086 284.629C50.0977 284.762 50.0512 284.951 50.0217 285.04L50.0035 285.035C50.0793 284.856 50.0563 284.702 50.0086 284.629C50.0071 284.627 50.0055 284.625 50.0039 284.622C50.0055 284.625 50.0071 284.627 50.0086 284.629Z" fill="#727785"/>
<path d="M49.7053 284.713C49.7488 284.79 49.8469 284.814 49.8951 284.821L49.8965 284.811C49.7964 284.804 49.7293 284.754 49.7053 284.713C49.7046 284.712 49.7038 284.71 49.7031 284.709C49.7038 284.71 49.7045 284.712 49.7053 284.713Z" fill="#727785"/>
<path d="M50.2216 284.937C50.2733 285.089 50.1798 285.259 50.1283 285.338L50.112 285.328C50.2315 285.174 50.2489 285.02 50.2216 284.937C50.2207 284.935 50.2197 284.932 50.2188 284.929C50.2197 284.932 50.2207 284.935 50.2216 284.937Z" fill="#727785"/>
<path d="M49.7149 284.991C49.7925 285.131 49.9813 285.176 50.0744 285.191L50.0781 285.172C49.8839 285.157 49.7577 285.066 49.7149 284.991C49.7135 284.988 49.7122 284.986 49.7109 284.983C49.7122 284.986 49.7135 284.988 49.7149 284.991Z" fill="#727785"/>
<path d="M49.6851 285.295C49.7928 285.498 50.0463 285.568 50.1709 285.592L50.1753 285.566C49.9157 285.539 49.7445 285.404 49.6851 285.295C49.6833 285.291 49.6815 285.287 49.6797 285.284C49.6814 285.287 49.6832 285.291 49.6851 285.295Z" fill="#727785"/>
<path d="M67.7592 288.47C67.776 288.177 67.8727 287.875 68.1025 287.654C67.5264 287.721 67.32 287.898 67.1007 288.152C66.5707 288.768 66.9396 289.434 67.2693 289.294C67.5989 289.154 67.7418 288.774 67.7592 288.47Z" fill="#E5E6ED"/>
<path d="M67.7509 287.839C67.1715 288.186 67.0094 288.988 66.9608 289.383L67.0395 289.395C67.0735 288.575 67.4381 288.03 67.7509 287.839C67.7609 287.833 67.771 287.827 67.7812 287.821C67.7712 287.827 67.7611 287.833 67.7509 287.839Z" fill="#727785"/>
<path d="M67.2179 288.097C67.1288 288.231 67.1753 288.419 67.2049 288.509L67.223 288.503C67.1472 288.324 67.1702 288.17 67.2179 288.097C67.2195 288.095 67.221 288.093 67.2227 288.091C67.2211 288.093 67.2195 288.095 67.2179 288.097Z" fill="#727785"/>
<path d="M67.5212 288.181C67.4778 288.258 67.3796 288.282 67.3315 288.289L67.3301 288.279C67.4301 288.272 67.4973 288.223 67.5212 288.181C67.522 288.18 67.5227 288.179 67.5234 288.177C67.5228 288.179 67.522 288.18 67.5212 288.181Z" fill="#727785"/>
<path d="M67.005 288.405C66.9532 288.557 67.0467 288.727 67.0983 288.806L67.1145 288.796C66.9951 288.643 66.9777 288.488 67.005 288.405C67.0059 288.403 67.0068 288.4 67.0078 288.398C67.0068 288.4 67.0059 288.403 67.005 288.405Z" fill="#727785"/>
<path d="M67.5117 288.459C67.4341 288.599 67.2452 288.644 67.1522 288.659L67.1485 288.64C67.3427 288.625 67.4689 288.534 67.5117 288.459C67.513 288.456 67.5144 288.454 67.5156 288.451C67.5144 288.454 67.5131 288.456 67.5117 288.459Z" fill="#727785"/>
<path d="M67.5414 288.763C67.4337 288.966 67.1803 289.037 67.0557 289.06L67.0513 289.034C67.3109 289.007 67.482 288.873 67.5414 288.763C67.5433 288.759 67.5451 288.756 67.5469 288.752C67.5452 288.756 67.5434 288.759 67.5414 288.763Z" fill="#727785"/>
<rect x="145" y="169" width="8" height="130" fill="#20242E"/>
<rect x="145" y="169" width="6" height="130" fill="#334680"/>
<path d="M174.715 98.5634C178.024 98.5634 181.082 100.329 182.736 103.194L207.952 146.87C209.607 149.735 209.607 153.266 207.952 156.132L182.736 199.807C181.081 202.673 178.024 204.438 174.715 204.438L124.283 204.438C120.974 204.438 117.916 202.673 116.262 199.807L91.0458 156.132C89.3914 153.266 89.3914 149.735 91.0458 146.87L116.262 103.194C117.916 100.329 120.974 98.5634 124.283 98.5634L174.715 98.5634Z" fill="#2F63FF"/>
<path fill-rule="evenodd" clip-rule="evenodd" d="M103.591 177.854C142.161 173.665 172.182 140.992 172.182 101.308C172.182 100.389 172.165 99.4743 172.134 98.5634L124.286 98.5634C120.978 98.5634 117.92 100.329 116.266 103.194L91.0494 146.87C89.395 149.735 89.395 153.266 91.0494 156.132L103.591 177.854Z" fill="white" fill-opacity="0.15"/>
<path d="M171.438 105.15C173.862 105.15 176.102 106.443 177.314 108.543L199.872 147.615C201.085 149.715 201.085 152.301 199.872 154.401L177.314 193.473C176.102 195.573 173.862 196.866 171.438 196.866L126.321 196.866C123.896 196.866 121.656 195.573 120.444 193.473L97.8857 154.401C96.6736 152.301 96.6736 149.715 97.8857 147.615L120.444 108.543C121.656 106.443 123.896 105.15 126.321 105.15L171.438 105.15Z" stroke="white" stroke-width="3"/>
<path d="M137.026 159.908V155.308H134.786V148.828H129.546V155.308H124.226L132.106 136.708H126.866L118.986 155.308V159.908H129.546V164.308H134.786V159.908H137.026ZM142.445 162.388C143.805 163.988 145.885 164.748 148.685 164.748C151.485 164.748 153.525 163.948 154.885 162.348C156.245 160.748 156.925 158.388 156.925 155.228V145.468C156.925 142.428 156.245 140.148 154.885 138.588C153.525 137.068 151.485 136.268 148.685 136.268C145.965 136.268 143.925 137.068 142.525 138.628C141.125 140.188 140.445 142.468 140.445 145.468V155.228C140.445 158.428 141.085 160.788 142.445 162.388ZM151.045 158.988C150.645 159.788 149.845 160.188 148.685 160.188C147.525 160.188 146.725 159.788 146.325 158.988C145.925 158.188 145.725 156.788 145.725 154.788V146.228C145.725 144.268 145.925 142.868 146.325 142.068C146.725 141.268 147.485 140.868 148.685 140.868C149.845 140.868 150.645 141.268 151.045 142.068C151.445 142.868 151.685 144.268 151.685 146.228V154.788C151.685 156.788 151.445 158.188 151.045 158.988ZM178.354 159.908V155.308H176.114V148.828H170.874V155.308H165.554L173.434 136.708H168.194L160.314 155.308V159.908H170.874V164.308H176.114V159.908H178.354Z" fill="white"/>
<path d="M93.3565 223H103.231L125.674 293.02H70.9141L93.3565 223Z" fill="white"/>
<path fill-rule="evenodd" clip-rule="evenodd" d="M93.3565 223H103.231L112.294 251.277H84.2932L93.3565 223ZM81.7037 259.357L78.3949 269.68H118.193L114.884 259.357H81.7037ZM75.8054 277.76H120.782L125.674 293.02H70.9141L75.8054 277.76Z" fill="#2F63FF"/>
<rect x="57" y="293.02" width="82.5882" height="6.28389" fill="#2F63FF"/>
<path fill-rule="evenodd" clip-rule="evenodd" d="M123.516 286.288L125.674 293.021H70.9141L73.072 286.288H123.516Z" fill="black" fill-opacity="0.2"/>
<mask id="mask0_437_6041" style="mask-type:alpha" maskUnits="userSpaceOnUse" x="57" y="223" width="83" height="77">
<path fill-rule="evenodd" clip-rule="evenodd" d="M93.3565 223H103.231L112.294 251.277H84.2932L93.3565 223ZM81.7037 259.357L78.3949 269.68H118.193L114.884 259.357H81.7037ZM75.8054 277.76H120.782L125.674 293.02H70.9141L75.8054 277.76Z" fill="#2F63FF"/>
<rect x="57" y="293.02" width="82.5882" height="6.28389" fill="#2F63FF"/>
<path fill-rule="evenodd" clip-rule="evenodd" d="M123.516 286.288L125.674 293.021H70.9141L73.072 286.288H123.516Z" fill="black" fill-opacity="0.2"/>
</mask>
<g mask="url(#mask0_437_6041)">
<circle cx="46.2278" cy="205.944" r="83.9348" fill="white" fill-opacity="0.2"/>
</g>
<path d="M-50 300H350" stroke="#20242E" stroke-width="4" stroke-linecap="round" stroke-linejoin="round"/>
</svg>
