<svg width="500" height="400" viewBox="0 0 500 400" fill="none" xmlns="http://www.w3.org/2000/svg">
<rect width="500" height="400" fill="white"/>
<path fill-rule="evenodd" clip-rule="evenodd" d="M126 268H308C309.03 268 310.034 267.889 311 267.678C311.966 267.889 312.97 268 314 268H418C425.732 268 432 261.732 432 254C432 246.268 425.732 240 418 240H406C398.268 240 392 233.732 392 226C392 218.268 398.268 212 406 212H444C451.732 212 458 205.732 458 198C458 190.268 451.732 184 444 184H400C407.732 184 414 177.732 414 170C414 162.268 407.732 156 400 156H272C279.732 156 286 149.732 286 142C286 134.268 279.732 128 272 128H158C150.268 128 144 134.268 144 142C144 149.732 150.268 156 158 156H78C70.268 156 64 162.268 64 170C64 177.732 70.268 184 78 184H128C135.732 184 142 190.268 142 198C142 205.732 135.732 212 128 212H48C40.268 212 34 218.268 34 226C34 233.732 40.268 240 48 240H126C118.268 240 112 246.268 112 254C112 261.732 118.268 268 126 268ZM452 268C459.732 268 466 261.732 466 254C466 246.268 459.732 240 452 240C444.268 240 438 246.268 438 254C438 261.732 444.268 268 452 268Z" fill="#F3F7FF"/>
<path fill-rule="evenodd" clip-rule="evenodd" d="M184 280C159.699 280 140 260.748 140 237C140 213.252 159.699 194 184 194C185.033 194 186.058 194.035 187.074 194.103C186.368 190.176 186 186.131 186 182C186 144.445 216.445 114 254 114C283.982 114 309.432 133.404 318.477 160.339C320.62 160.115 322.797 160 325 160C358.689 160 386 186.863 386 220C386 251.481 361.351 277.455 330 279.956V280H217.016H184ZM207.992 280H194.063H207.992Z" fill="white"/>
<path d="M207.992 280H194.063M184 280C159.699 280 140 260.748 140 237C140 213.252 159.699 194 184 194C185.033 194 186.058 194.035 187.074 194.103C186.368 190.176 186 186.131 186 182C186 144.445 216.445 114 254 114C283.982 114 309.432 133.404 318.477 160.339C320.62 160.115 322.797 160 325 160C358.689 160 386 186.863 386 220C386 251.481 361.351 277.455 330 279.956V280H217.016H184Z" stroke="#1F64E7" stroke-width="2.5" stroke-linecap="round"/>
<path fill-rule="evenodd" clip-rule="evenodd" d="M233.225 128.685C233.225 193.131 291.266 246.236 366 253.406C356.635 264.922 342.171 272.735 325.694 273.963V274H191.486C175.203 274 148 267.139 148 237.097C148 207.054 169.148 200.193 191.486 200.193C192.436 200.193 193.378 200.223 194.312 200.282C193.663 196.911 193.549 193.437 193.325 189.895C191.808 165.968 202.246 135.814 233.261 126C233.236 126.895 233.225 127.789 233.225 128.685ZM254.233 229.516C248.155 229.516 243.228 234.384 243.228 240.39C243.228 246.395 248.155 251.264 254.233 251.264C260.31 251.264 265.237 246.395 265.237 240.39C265.237 234.384 260.31 229.516 254.233 229.516Z" fill="#E8F0FE"/>
<path d="M255 252C261.075 252 266 247.075 266 241C266 234.925 261.075 230 255 230C248.925 230 244 234.925 244 241C244 247.075 248.925 252 255 252Z" stroke="#1F64E7" stroke-width="2.5"/>
<path d="M224 218L238 207.014L224 196.555" stroke="#1F64E7" stroke-width="2.5" stroke-linecap="round" stroke-linejoin="round"/>
<path d="M286 218L272 207.014L286 196.555" stroke="#1F64E7" stroke-width="2.5" stroke-linecap="round" stroke-linejoin="round"/>
<path d="M273.998 134C287.016 137.445 297.295 147.626 300.879 160.586" stroke="#75A4FE" stroke-width="2.5" stroke-linecap="round"/>
<path d="M316 100C319.314 100 322 97.3137 322 94C322 90.6863 319.314 88 316 88C312.686 88 310 90.6863 310 94C310 97.3137 312.686 100 316 100Z" stroke="#75A4FE" stroke-width="2"/>
<path d="M378 132C381.314 132 384 129.314 384 126C384 122.686 381.314 120 378 120C374.686 120 372 122.686 372 126C372 129.314 374.686 132 378 132Z" fill="#75A4FE"/>
<path d="M331.516 115.515L348.232 132.231M348.486 115.515L331.77 132.231L348.486 115.515Z" stroke="#75A4FE" stroke-width="2.5" stroke-linecap="round" stroke-linejoin="round"/>
<path d="M142.809 151.192L154.809 163.192M154.809 151.192L142.809 163.192L154.809 151.192Z" stroke="#75A4FE" stroke-width="2.5" stroke-linecap="round" stroke-linejoin="round"/>
<path d="M170 138C173.314 138 176 135.314 176 132C176 128.686 173.314 126 170 126C166.686 126 164 128.686 164 132C164 135.314 166.686 138 170 138Z" fill="#75A4FE"/>
</svg>
