<svg width="40" height="40" viewBox="0 0 40 40" fill="none" xmlns="http://www.w3.org/2000/svg">
<rect width="40" height="40" rx="16" fill="#E11B1C"/>
<path d="M20.999 33.998C30.333 33.998 34.998 27.73 34.998 19.998C34.998 12.268 30.333 6 20.998 6C11.665 6 7 12.268 7 19.999C7 27.73 11.664 33.998 20.999 33.998Z" fill="#AF7514"/>
<path d="M15.4185 23.224C15.9762 23.2326 16.5301 23.1302 17.0479 22.9227C17.5656 22.7152 18.037 22.4068 18.4344 22.0154C18.8319 21.6241 19.1475 21.1576 19.3629 20.643C19.5784 20.1285 19.6893 19.5763 19.6893 19.0185C19.6893 18.4607 19.5784 17.9085 19.3629 17.394C19.1475 16.8795 18.8319 16.4129 18.4344 16.0216C18.037 15.6302 17.5656 15.3218 17.0479 15.1143C16.5301 14.9068 15.9762 14.8044 15.4185 14.813C14.3144 14.83 13.2612 15.2806 12.4864 16.0674C11.7116 16.8543 11.2773 17.9142 11.2773 19.0185C11.2773 20.1228 11.7116 21.1828 12.4864 21.9696C13.2612 22.7564 14.3144 23.207 15.4185 23.224ZM26.5665 23.301C27.1239 23.301 27.6758 23.1912 28.1908 22.9779C28.7058 22.7646 29.1737 22.452 29.5678 22.0578C29.9619 21.6637 30.2746 21.1958 30.4879 20.6808C30.7012 20.1658 30.811 19.6139 30.811 19.0565C30.811 18.4991 30.7012 17.9472 30.4879 17.4322C30.2746 16.9172 29.9619 16.4493 29.5678 16.0552C29.1737 15.6611 28.7058 15.3484 28.1908 15.1351C27.6758 14.9218 27.1239 14.812 26.5665 14.812C25.4406 14.812 24.3609 15.2593 23.5648 16.0553C22.7687 16.8514 22.3215 17.9312 22.3215 19.057C22.3215 20.1829 22.7687 21.2626 23.5648 22.0587C24.3609 22.8548 25.4406 23.301 26.5665 23.301Z" fill="white"/>
<path d="M15.017 10.37C14.827 11.073 14.492 11.725 13.952 12.2C13.419 12.667 12.645 13 11.5 13C11.3674 13 11.2402 13.0527 11.1464 13.1465C11.0527 13.2402 11 13.3674 11 13.5C11 13.6326 11.0527 13.7598 11.1464 13.8536C11.2402 13.9474 11.3674 14 11.5 14C12.855 14 13.873 13.6 14.612 12.951C15.342 12.309 15.758 11.461 15.982 10.631C16.0001 10.5674 16.0053 10.5008 15.9975 10.4351C15.9896 10.3695 15.9688 10.306 15.9363 10.2484C15.9037 10.1909 15.86 10.1403 15.8078 10.0997C15.7556 10.0591 15.6958 10.0293 15.632 10.012C15.5682 9.99464 15.5015 9.99015 15.436 9.99876C15.3704 10.0074 15.3072 10.0289 15.25 10.0621C15.1928 10.0953 15.1427 10.1395 15.1027 10.1922C15.0627 10.2449 15.0336 10.306 15.017 10.37ZM26.983 10.37C27.173 11.073 27.508 11.725 28.048 12.2C28.581 12.667 29.355 13 30.5 13C30.6326 13 30.7598 13.0527 30.8536 13.1465C30.9473 13.2402 31 13.3674 31 13.5C31 13.6326 30.9473 13.7598 30.8536 13.8536C30.7598 13.9474 30.6326 14 30.5 14C29.145 14 28.127 13.6 27.388 12.951C26.658 12.309 26.242 11.461 26.018 10.631C25.9999 10.5674 25.9947 10.5008 26.0025 10.4351C26.0104 10.3695 26.0312 10.306 26.0637 10.2484C26.0963 10.1909 26.14 10.1403 26.1922 10.0997C26.2444 10.0591 26.3042 10.0293 26.368 10.012C26.4318 9.99464 26.4985 9.99015 26.564 9.99876C26.6296 10.0074 26.6928 10.0289 26.75 10.0621C26.8072 10.0953 26.8573 10.1395 26.8973 10.1922C26.9373 10.2449 26.9664 10.306 26.983 10.37ZM21 27C19.714 27 18.986 27.428 18.707 27.707C18.5184 27.8892 18.2658 27.99 18.0036 27.9877C17.7414 27.9854 17.4906 27.8803 17.3052 27.6948C17.1198 27.5094 17.0146 27.2586 17.0123 26.9964C17.01 26.7342 17.1108 26.4816 17.293 26.293C18.013 25.573 19.286 25 21 25C22.64 25 23.981 25.567 24.707 26.293C24.8892 26.4816 24.99 26.7342 24.9877 26.9964C24.9854 27.2586 24.8802 27.5094 24.6948 27.6948C24.5094 27.8803 24.2586 27.9854 23.9964 27.9877C23.7342 27.99 23.4816 27.8892 23.293 27.707C23.019 27.433 22.228 27 21 27ZM19 19C19 19.394 18.9224 19.7841 18.7716 20.1481C18.6209 20.5121 18.3999 20.8428 18.1213 21.1214C17.8427 21.3999 17.512 21.6209 17.1481 21.7717C16.7841 21.9224 16.394 22 16 22C15.606 22 15.2159 21.9224 14.8519 21.7717C14.488 21.6209 14.1573 21.3999 13.8787 21.1214C13.6001 20.8428 13.3791 20.5121 13.2284 20.1481C13.0776 19.7841 13 19.394 13 19C13 18.2044 13.3161 17.4413 13.8787 16.8787C14.4413 16.3161 15.2044 16 16 16C16.7956 16 17.5587 16.3161 18.1213 16.8787C18.6839 17.4413 19 18.2044 19 19ZM29 19C29 19.7957 28.6839 20.5587 28.1213 21.1214C27.5587 21.684 26.7956 22 26 22C25.2044 22 24.4413 21.684 23.8787 21.1214C23.3161 20.5587 23 19.7957 23 19C23 18.2044 23.3161 17.4413 23.8787 16.8787C24.4413 16.3161 25.2044 16 26 16C26.7956 16 27.5587 16.3161 28.1213 16.8787C28.6839 17.4413 29 18.2044 29 19Z" fill="#402A32"/>
<path d="M6 23.5C6 22.837 6.26339 22.2011 6.73223 21.7322C7.20107 21.2634 7.83696 21 8.5 21C9.16304 21 9.79893 21.2634 10.2678 21.7322C10.7366 22.2011 11 22.837 11 23.5V27.5C11 28.163 10.7366 28.7989 10.2678 29.2678C9.79893 29.7366 9.16304 30 8.5 30C7.83696 30 7.20107 29.7366 6.73223 29.2678C6.26339 28.7989 6 28.163 6 27.5V23.5Z" fill="#3F5FFF"/>
</svg>
