<svg width="40" height="41" viewBox="0 0 40 41" fill="none" xmlns="http://www.w3.org/2000/svg">
<rect y="0.5" width="40" height="40" rx="16" fill="#1FA96F"/>
<path d="M26.8047 23.4004C26.8756 24.7505 29.1599 26.3771 30.0396 26.9907C31.144 27.7611 26.4868 32.6705 25.8377 31.9726C25.3765 31.4772 22.4964 29.3715 22.3086 29.2162" fill="url(#paint0_linear_1684_9498)"/>
<path d="M20.2346 15.328C19.3801 15.0145 18.3466 16.2877 19.9005 18.0045C20.0971 18.2027 20.3189 18.4008 20.5776 18.5901C21.2075 19.0529 22.374 20.1413 22.374 20.1413C22.2897 20.3025 19.7319 18.0163 19.0238 17.2932L17.4536 18.7942C17.7803 19.0278 18.4264 19.5468 18.3422 19.6636C18.2579 19.7805 18.116 19.4507 17.838 19.2526C17.5586 19.0544 17.4181 21.6836 17.3841 21.8211C17.359 21.9246 16.9184 21.9645 16.6937 22.7468C16.6183 23.007 16.8105 24.2817 16.7735 24.332C16.7735 24.332 15.8583 23.2643 15.3364 22.8843C14.8145 22.5043 14.952 25.5859 15.5331 25.9852C16.4793 26.6358 19.4658 29.8905 22.0354 29.4572C25.0086 28.9545 27.2382 25.3878 26.8523 23.1106C26.4679 20.8348 24.4646 19.1668 22.9314 17.9838C21.6347 16.9842 20.9236 15.7716 20.2346 15.328Z" fill="url(#paint1_linear_1684_9498)"/>
<path d="M15.3399 22.8858C14.8179 22.5058 13.5346 21.345 12.7362 20.8215C11.9379 20.2995 11.2903 20.369 10.9088 21.0655C10.5274 21.762 11.9334 22.7867 12.2587 23.0559C12.7555 23.4669 14.9525 25.5386 15.5365 25.9867" fill="url(#paint2_linear_1684_9498)"/>
<path d="M17.3849 21.8225C17.2947 21.9556 16.9251 21.3967 16.0439 20.712C15.3697 20.19 13.5719 18.7202 12.5946 17.9793C11.3822 17.0625 10.8825 17.027 10.3665 17.549C9.85052 18.071 10.3325 18.8947 11.1146 19.5187C11.7755 20.0466 12.8533 20.8348 14.218 21.7974C15.0356 22.3741 16.9206 24.1279 16.7757 24.3319" fill="url(#paint3_linear_1684_9498)"/>
<path d="M19.0248 17.2931C18.3166 16.57 15.4705 14.3918 14.7771 13.7427C14.0837 13.092 13.3755 13.2458 12.9586 13.6983C12.5416 14.1508 12.5904 14.7719 14.0127 16.0022C14.9102 16.7785 15.7573 17.5238 17.4546 18.7955L19.4225 18.5648L19.0248 17.2931Z" fill="url(#paint4_linear_1684_9498)"/>
<path d="M17.8387 19.2541C17.5592 19.056 15.0266 16.9103 14.4589 16.4548C13.2702 15.5011 11.6778 13.8582 10.7065 14.8282C10.0796 15.4523 10.5897 16.1177 10.841 16.378C11.0924 16.6382 14.2755 19.1654 14.5771 19.3798C14.8773 19.5927 17.4203 21.6866 17.3877 21.8241" fill="url(#paint5_linear_1684_9498)"/>
<path d="M12.7743 14.5015C12.9015 14.8919 13.3006 15.3872 14.0103 16.0009C14.9078 16.7773 15.7638 17.5122 17.4522 18.7942C17.773 19.0367 18.4251 19.5469 18.3408 19.6637C18.4354 18.7144 15.6795 17.0952 14.5559 16.1917C13.3642 15.232 12.6797 14.2087 12.7743 14.5015Z" fill="url(#paint6_radial_1684_9498)"/>
<path d="M14.5765 19.3782C14.8766 19.5911 17.4196 21.685 17.3871 21.8225C17.3871 21.8225 17.2718 21.055 16.4024 20.4369C14.6179 19.1682 12.7846 17.7294 11.9138 16.8407C11.0932 16.0022 10.4279 15.7242 10.5063 15.9017C10.5846 16.0791 10.7458 16.2788 10.8419 16.3778C11.0932 16.6366 14.2764 19.1638 14.5765 19.3782Z" fill="url(#paint7_linear_1684_9498)"/>
<path d="M11.1151 19.5186C11.776 20.0465 12.8538 20.8347 14.2185 21.7973C15.0361 22.374 16.9211 24.1278 16.7762 24.3319C17.619 23.3396 10.6745 19.3323 10.1556 17.9896C10.1112 18.4702 10.5282 19.0513 11.1151 19.5186Z" fill="url(#paint8_linear_1684_9498)"/>
<path d="M16.6026 24.5316C16.6898 24.4798 16.7682 24.3823 16.7771 24.332C16.7771 24.332 15.819 23.2333 15.34 22.8843C14.8181 22.5043 13.5347 21.3435 12.7363 20.82C12.3859 20.5908 12.0637 20.4755 11.7812 20.4769C12.2071 20.6899 12.0296 20.7978 12.9877 21.3982C13.4992 21.722 16.0363 24.8732 16.6026 24.5316Z" fill="url(#paint9_radial_1684_9498)"/>
<path d="M14.5715 19.8543C15.4127 20.4488 16.8794 22.2765 17.385 21.8225C17.2386 21.9023 16.73 21.2443 16.044 20.712C15.3698 20.19 13.5838 18.7024 12.5933 17.9793C11.5716 17.234 11.1798 17.0965 10.6875 17.3006C12.2621 17.5401 12.506 18.3963 14.5715 19.8543Z" fill="url(#paint10_radial_1684_9498)"/>
<path d="M14.681 17.1054C15.8993 18.0503 18.0371 19.9283 18.3417 19.665C18.2205 19.7257 18.0874 19.4314 17.8375 19.254C17.5581 19.0558 15.0255 16.9102 14.4577 16.4547C13.72 15.8632 12.6407 14.8178 11.7344 14.5782C12.6969 15.1046 13.6948 16.3394 14.681 17.1054Z" fill="url(#paint11_linear_1684_9498)"/>
<path d="M16.777 24.332C16.777 24.332 15.819 23.2333 15.3399 22.8843C14.818 22.5043 13.5347 21.3435 12.7363 20.82C12.3859 20.5908 12.0636 20.4755 11.7812 20.4769C12.207 20.6899 13.0025 21.1291 14.4277 22.3401C16.9042 24.5035 16.7696 24.3823 16.777 24.332Z" fill="url(#paint12_radial_1684_9498)"/>
<path d="M20.2333 15.3278C20.0884 15.2746 19.9332 15.2879 19.7839 15.3485C20.3738 15.5807 20.9962 16.0583 21.2845 17.1452C21.6497 18.5204 24.4455 19.486 25.2306 20.8923C26.0689 22.3932 25.7259 24.7162 24.688 25.6094C23.6501 26.5025 22.6314 29.8282 17.6475 27.1074C17.646 27.1074 17.6445 27.1059 17.6445 27.1059C17.334 26.9018 16.407 26.2024 16.1483 26.0131C14.791 25.0268 13.0213 23.0823 12.1298 22.2808C11.9538 22.124 11.4645 21.5015 10.9766 21.7677C11.2856 22.3192 12.0292 22.8678 12.254 23.0542C12.7507 23.4652 15.3277 25.843 15.4209 25.9081C16.1246 26.3961 19.4823 29.8844 22.0326 29.4556C25.0073 28.9572 27.2354 25.3861 26.8495 23.1089C26.4651 20.8331 24.4618 19.1651 22.9286 17.9821C21.6335 16.984 20.9223 15.7714 20.2333 15.3278Z" fill="url(#paint13_linear_1684_9498)"/>
<path d="M30.0407 26.9905C29.2438 26.4345 27.2966 25.046 26.8856 23.7861C26.8945 23.5525 26.8885 23.3248 26.8516 23.1104C26.4672 20.8346 24.4638 19.1666 22.9306 17.9836C21.634 16.9826 20.9229 15.77 20.2324 15.3279C19.3779 15.0144 18.3444 16.2875 19.8983 18.0043C20.0949 18.2025 20.3182 18.4006 20.5754 18.5899C21.2053 19.0528 22.3718 20.1411 22.3718 20.1411C22.2875 20.3023 19.7312 18.0162 19.0215 17.2931C18.3134 16.57 15.4673 14.3918 14.7739 13.7427C14.0805 13.092 13.3708 13.2458 12.9553 13.6983C12.5399 14.1508 12.5872 14.7719 14.0095 16.0022C14.9069 16.7785 15.7541 17.5252 17.4514 18.7955C17.7781 19.0291 18.4242 19.5481 18.34 19.665C18.2557 19.7833 18.1138 19.452 17.8358 19.2539C17.5564 19.0557 15.0237 16.9101 14.456 16.4546C13.2673 15.5009 11.675 13.858 10.7036 14.828C10.0767 15.4521 10.5868 16.1175 10.8381 16.3777C11.0895 16.638 14.2727 19.1651 14.5743 19.3796C14.8744 19.5925 17.4174 21.6864 17.3849 21.8239C17.2947 21.957 16.9251 21.398 16.0439 20.7134C15.3712 20.1914 13.5719 18.7215 12.5946 17.9807C11.3822 17.0639 10.8825 17.0284 10.3665 17.5504C9.85052 18.0724 10.3325 18.896 11.1146 19.52C11.7755 20.0479 12.8533 20.8361 14.218 21.7988C14.9838 22.34 16.6885 23.9133 16.7802 24.2771C16.7802 24.2786 16.7802 24.2786 16.7802 24.2801C16.7861 24.3037 16.7846 24.3214 16.7757 24.3333C16.7757 24.3333 15.8605 23.2657 15.3386 22.8856C14.8167 22.5056 13.5334 21.3448 12.735 20.8213C11.9367 20.2993 11.2891 20.3688 10.9076 21.0653C10.5247 21.7618 11.9322 22.7865 12.2575 23.0556C12.7543 23.4667 14.9513 25.5384 15.5353 25.9865C16.4815 26.6371 19.468 29.8918 22.0376 29.4585C22.1899 29.4334 22.3393 29.3935 22.4886 29.3521C23.1569 29.8548 25.4352 31.5361 25.8418 31.9738C26.4879 32.6703 31.1451 27.7624 30.0407 26.9905Z" fill="url(#paint14_linear_1684_9498)"/>
<path d="M28.2957 24.085C28.2395 25.4439 30.3744 27.2894 31.1964 27.9858C32.2299 28.8627 27.1025 33.3403 26.517 32.5788C26.1016 32.039 23.4167 29.6583 23.2422 29.4853" fill="url(#paint15_linear_1684_9498)"/>
<path d="M26.517 32.5802C26.7033 32.8227 27.3538 32.5314 28.1167 31.9946C27.1528 31.8867 25.2603 29.8904 25.0445 29.3743C24.8656 28.9455 24.0273 28.6172 23.2703 28.5137L23.2422 29.4867C23.4166 29.6597 26.103 32.039 26.517 32.5802Z" fill="url(#paint16_linear_1684_9498)"/>
<path d="M26.517 32.5802C26.1016 32.0405 23.4167 29.6597 23.2422 29.4867C25.4111 29.781 27.4914 26.9862 28.0724 25.2428C28.1537 24.9988 28.2365 24.8139 28.3238 24.6735C28.4642 25.5814 30.5075 27.4017 31.1964 27.9873C32.2299 28.8627 27.1025 33.3403 26.517 32.5802Z" fill="url(#paint17_linear_1684_9498)"/>
<path d="M22.4728 15.3797C21.6464 14.9849 20.4902 16.1635 21.8859 18.0296C22.0633 18.247 22.2688 18.4658 22.5098 18.6802C23.0968 19.2037 24.1628 20.403 24.1628 20.403C24.0637 20.5568 21.7173 18.0252 21.0757 17.2341L19.3606 18.5901C19.6652 18.8547 20.264 19.4359 20.1694 19.5453C20.0747 19.6547 19.9639 19.3102 19.7037 19.0854C19.4434 18.8607 19.0531 21.481 19.0073 21.6155C18.9718 21.7161 18.5283 21.7161 18.2281 22.4776C18.1291 22.732 18.2 24.0258 18.1586 24.0732C18.1586 24.0732 17.3425 22.9183 16.8546 22.488C16.3667 22.0577 16.2144 25.1585 16.7585 25.6125C17.6441 26.3534 20.329 29.8964 22.943 29.7027C25.968 29.4794 28.5376 26.1168 28.3676 23.8011C28.1975 21.4854 26.3479 19.6252 24.9242 18.2958C23.7192 17.169 23.1219 15.8869 22.4728 15.3797Z" fill="url(#paint18_linear_1684_9498)"/>
<path d="M16.8558 22.4865C16.3679 22.0562 15.1925 20.7726 14.4429 20.1738C13.6933 19.5749 13.0384 19.5838 12.5889 20.2447C12.1394 20.9057 13.4524 22.0665 13.7525 22.3652C14.2123 22.8236 16.2156 25.1053 16.7597 25.6096" fill="url(#paint19_linear_1684_9498)"/>
<path d="M19.008 21.614C18.906 21.7382 18.5881 21.1438 17.7691 20.3748C17.1437 19.7878 15.4804 18.1464 14.5711 17.3124C13.443 16.2788 12.9463 16.1974 12.38 16.6706C11.8137 17.1438 12.2188 18.0148 12.9433 18.7142C13.5554 19.3042 14.5608 20.1959 15.8367 21.2902C16.601 21.9452 18.3235 23.8794 18.1593 24.0702" fill="url(#paint20_linear_1684_9498)"/>
<path d="M21.0769 17.2326C20.4352 16.4415 17.7902 13.9913 17.1574 13.2756C16.5246 12.5599 15.8002 12.6456 15.3404 13.0597C14.8805 13.4737 14.8702 14.1007 16.1801 15.467C17.0066 16.3291 17.7843 17.1572 19.3633 18.5901L21.3548 18.5428L21.0769 17.2326Z" fill="url(#paint21_linear_1684_9498)"/>
<path d="M19.7026 19.0839C19.4424 18.8592 17.1078 16.471 16.5815 15.9609C15.4815 14.8932 14.0415 13.098 12.9755 13.9779C12.2895 14.5442 12.736 15.2585 12.9636 15.5424C13.1913 15.8263 16.1409 18.6595 16.4218 18.9006C16.7027 19.1431 19.052 21.4795 19.0062 21.614" fill="url(#paint22_linear_1684_9498)"/>
<path d="M15.0834 13.8478C15.1736 14.2515 15.527 14.7839 16.1805 15.4671C17.0069 16.3291 17.795 17.1469 19.3636 18.5901C19.6608 18.8637 20.267 19.4359 20.1724 19.5454C20.3572 18.6034 17.7491 16.7225 16.7098 15.7096C15.6039 14.6345 15.0154 13.5447 15.0834 13.8478Z" fill="url(#paint23_linear_1684_9498)"/>
<path d="M16.4216 18.9005C16.7025 19.143 19.0518 21.4794 19.0059 21.614C19.0059 21.614 18.9631 20.8347 18.1499 20.1323C16.4822 18.6935 14.7804 17.0787 13.9939 16.1057C13.2517 15.1889 12.61 14.8473 12.6721 15.0322C12.7342 15.217 12.8762 15.4329 12.9634 15.5409C13.1911 15.8262 16.1421 18.6595 16.4216 18.9005Z" fill="url(#paint24_linear_1684_9498)"/>
<path d="M12.9431 18.7158C13.5552 19.3058 14.5606 20.1975 15.8365 21.2917C16.6009 21.9468 18.3233 23.881 18.1592 24.0717C19.0965 23.1579 12.5203 18.4866 12.127 17.0936C12.0368 17.5712 12.4005 18.1908 12.9431 18.7158Z" fill="url(#paint25_linear_1684_9498)"/>
<path d="M17.9668 24.2551C18.0585 24.2108 18.1472 24.1206 18.1605 24.0718C18.1605 24.0718 17.3045 22.8814 16.8565 22.4866C16.3686 22.0563 15.1932 20.7727 14.4436 20.1739C14.1139 19.9106 13.8034 19.7657 13.5195 19.7406C13.9261 19.9935 13.7384 20.0866 14.6417 20.7772C15.1252 21.1469 17.368 24.5435 17.9668 24.2551Z" fill="url(#paint26_linear_1684_9498)"/>
<path d="M16.3769 19.3783C17.1635 20.0526 18.4601 22.0223 19.0086 21.6142C18.8549 21.6792 18.4069 20.9724 17.7697 20.375C17.1443 19.788 15.4958 18.1288 14.5717 17.3126C13.6181 16.4697 13.2396 16.2937 12.7266 16.4534C14.2819 16.8423 14.4446 17.7222 16.3769 19.3783Z" fill="url(#paint27_linear_1684_9498)"/>
<path d="M16.7457 16.6351C17.8768 17.6969 19.8402 19.7789 20.1714 19.5438C20.0442 19.5926 19.9378 19.285 19.7057 19.0839C19.4454 18.8591 17.1109 16.471 16.5846 15.9608C15.9 15.2998 14.9183 14.1509 14.0312 13.8256C14.9464 14.4437 15.8291 15.7745 16.7457 16.6351Z" fill="url(#paint28_linear_1684_9498)"/>
<path d="M22.4754 15.3797C22.335 15.3132 22.1782 15.3117 22.023 15.3576C22.5922 15.6459 23.1703 16.1827 23.3566 17.2991C23.5932 18.7113 26.3017 19.9416 26.9567 21.4248C27.6545 23.007 27.0912 25.302 25.9676 26.099C24.8439 26.8961 23.5104 30.13 18.7748 26.9345C18.7733 26.933 18.7733 26.933 18.7718 26.933C18.4791 26.6994 17.6186 25.9112 17.3761 25.6983C16.1091 24.5819 14.5212 22.4673 13.7036 21.58C13.5424 21.4056 13.1107 20.7372 12.5977 20.9575C12.8549 21.5386 13.5483 22.1597 13.7553 22.3667C14.2151 22.8251 16.5718 25.4499 16.6591 25.5238C17.3185 26.0798 20.3523 29.889 22.9471 29.7027C25.9735 29.4838 28.5416 26.1168 28.3716 23.8011C28.2015 21.4854 26.352 19.6252 24.9282 18.2958C23.7218 17.169 23.1245 15.8869 22.4754 15.3797Z" fill="url(#paint29_linear_1684_9498)"/>
<path d="M18.2296 24.1411C18.2237 24.147 17.8896 23.8291 17.8171 23.7566C17.7787 23.7182 14.8469 20.4739 14.3516 20.1012C14.3516 20.1012 14.4004 20.1397 14.4181 20.1071C14.4314 20.0805 14.3885 20.0317 14.3885 20.0317C14.8454 20.3748 16.7083 21.9201 17.9103 23.5378C18.0271 23.699 18.2607 24.1101 18.2296 24.1411Z" fill="#975500"/>
<path d="M19.0779 21.6835C19.0779 21.685 19.0779 21.685 19.0779 21.6835C18.8724 21.793 15.0032 17.6111 14.0703 16.8821C14.0703 16.8821 14.162 16.9235 14.196 16.8806C14.2241 16.8378 14.1708 16.7476 14.1708 16.7476C15.1141 17.4854 19.1548 21.546 19.0779 21.6835Z" fill="#975500"/>
<path d="M20.2388 19.6133C20.1796 19.6488 19.9889 19.4448 19.9519 19.4048C19.2807 18.6507 18.5178 17.9527 17.6396 17.0803C16.924 16.369 16.2365 15.6563 15.793 15.1653C15.793 15.1653 15.8462 15.2215 15.8713 15.2038C15.9113 15.1668 15.8388 15.0958 15.8388 15.0958C16.2794 15.5838 17.0645 16.2315 17.7771 16.9413C18.6568 17.8152 19.3827 18.5206 20.0584 19.2777C20.0939 19.3176 20.2743 19.5764 20.2388 19.6133Z" fill="#975500"/>
<path d="M26.637 32.6512C26.6665 32.601 24.709 30.618 23.8471 29.8387L23.5055 29.5282C23.4715 29.4971 23.4257 29.4838 23.3799 29.4927C23.232 29.5193 23.0842 29.543 22.9334 29.5548C20.9138 29.7027 18.8409 27.5378 17.6034 26.2425C17.2885 25.9127 17.0387 25.651 16.8598 25.5016C16.5478 25.2118 15.7391 24.3186 15.025 23.5305C14.5031 22.9538 14.0507 22.454 13.857 22.2602L13.755 22.1612C12.2558 20.8776 12.618 20.2004 12.5884 20.2433C12.1405 20.9057 13.4519 22.065 13.752 22.3637C14.2118 22.8222 16.2152 25.1038 16.7592 25.6081C17.6448 26.3489 20.3298 29.8919 22.9437 29.6982C23.099 29.6864 23.2527 29.6613 23.405 29.6346C24.026 30.201 26.1505 32.1012 26.5157 32.5773C26.5468 32.6172 26.5882 32.6379 26.637 32.6512Z" fill="#975500"/>
<path d="M11.7773 10.1154C11.7655 10.0755 11.7344 10.0444 11.696 10.0296C11.6575 10.0148 11.6132 10.0193 11.5777 10.0414L11.0675 10.3594C11.035 10.3801 11.0113 10.4141 11.0054 10.4525C10.9995 10.491 11.0113 10.5294 11.0365 10.5605C12.0819 11.8647 12.6453 12.4296 12.6424 12.4207C12.4383 11.708 11.7817 10.1302 11.7773 10.1154Z" fill="#975500"/>
<path d="M9.95808 12.3926C9.93146 12.366 9.89598 12.3512 9.85901 12.3526C9.82204 12.3541 9.78655 12.3704 9.76141 12.3985L9.36511 12.8495C9.33258 12.8865 9.32371 12.9367 9.33997 12.9826C9.35624 13.0284 9.39764 13.0536 9.44349 13.0698C10.7655 13.577 11.1514 13.8328 11.1603 13.824C11.2047 13.7826 10.9148 13.3641 9.95808 12.3926Z" fill="#975500"/>
<path d="M14.0048 10.1627C14.0003 10.1258 14.0136 10.0888 14.0373 10.0607C14.0624 10.0326 14.0964 10.0163 14.1349 10.0148L14.7352 10.0001C14.784 9.99858 14.8284 10.0237 14.8535 10.0651C14.8787 10.1065 14.8713 10.1538 14.855 10.1997C14.3996 11.5394 14.3818 12.0067 14.37 12.0082C14.3079 12.0185 14.1393 11.5202 14.0048 10.1627Z" fill="#975500"/>
<path d="M24.4956 12.3867C24.5223 12.3556 24.5341 12.3127 24.5252 12.2728C24.5164 12.2314 24.4897 12.1974 24.4528 12.1796L23.913 11.9149C23.8775 11.8972 23.8376 11.8972 23.8006 11.912C23.7652 11.9268 23.7385 11.9578 23.7252 11.9948C23.1707 13.5711 22.9903 14.3489 22.9962 14.343C23.496 13.79 24.4868 12.3985 24.4956 12.3867Z" fill="#975500"/>
<path d="M21.6263 12.0897C21.6352 12.0527 21.6278 12.0157 21.6071 11.9847C21.5864 11.9536 21.5538 11.9329 21.5169 11.927L20.9254 11.8294C20.8781 11.822 20.8293 11.8398 20.7997 11.8782C20.7686 11.9152 20.7701 11.964 20.779 12.0113C21.0481 13.4013 21.0363 13.8641 21.0466 13.8671C21.1073 13.8834 21.3084 13.4146 21.6263 12.0897Z" fill="#975500"/>
<path d="M25.6608 14.3417C25.6904 14.3196 25.7273 14.3092 25.7643 14.3151C25.8013 14.321 25.8338 14.3417 25.8545 14.3728L26.1857 14.8741C26.2124 14.914 26.2153 14.9658 26.1931 15.0086C26.1709 15.0515 26.1266 15.0707 26.0793 15.0811C24.7011 15.4035 24.2959 15.6356 24.2885 15.6267C24.2471 15.5809 24.5798 15.1743 25.6608 14.3417Z" fill="#975500"/>
<defs>
<linearGradient id="paint0_linear_1684_9498" x1="24.737" y1="26.4632" x2="26.4627" y2="28.0123" gradientUnits="userSpaceOnUse">
<stop offset="0.00132565" stop-color="#BE8D68"/>
<stop offset="1" stop-color="#CD9870"/>
</linearGradient>
<linearGradient id="paint1_linear_1684_9498" x1="24.9751" y1="30.5037" x2="20.619" y2="23.2932" gradientUnits="userSpaceOnUse">
<stop offset="0.00132565" stop-color="#BE8D68"/>
<stop offset="1" stop-color="#CD9870"/>
</linearGradient>
<linearGradient id="paint2_linear_1684_9498" x1="11.3189" y1="21.9699" x2="14.8899" y2="23.7716" gradientUnits="userSpaceOnUse">
<stop offset="0.00132565" stop-color="#BE8D68"/>
<stop offset="1" stop-color="#CD9870"/>
</linearGradient>
<linearGradient id="paint3_linear_1684_9498" x1="9.49363" y1="17.2833" x2="16.0097" y2="22.142" gradientUnits="userSpaceOnUse">
<stop offset="0.00132565" stop-color="#BE8D68"/>
<stop offset="1" stop-color="#CD9870"/>
</linearGradient>
<linearGradient id="paint4_linear_1684_9498" x1="14.3668" y1="14.3124" x2="18.479" y2="18.8688" gradientUnits="userSpaceOnUse">
<stop offset="0.00132565" stop-color="#BE8D68"/>
<stop offset="1" stop-color="#CD9870"/>
</linearGradient>
<linearGradient id="paint5_linear_1684_9498" x1="11.951" y1="15.5157" x2="17.0915" y2="20.4614" gradientUnits="userSpaceOnUse">
<stop offset="0.00132565" stop-color="#BE8D68"/>
<stop offset="1" stop-color="#CD9870"/>
</linearGradient>
<radialGradient id="paint6_radial_1684_9498" cx="0" cy="0" r="1" gradientUnits="userSpaceOnUse" gradientTransform="translate(15.5597 17.0551) rotate(-9.59197) scale(2.70276 2.70317)">
<stop stop-color="#B37E53" stop-opacity="0"/>
<stop offset="1" stop-color="#B37E53"/>
</radialGradient>
<linearGradient id="paint7_linear_1684_9498" x1="29.8907" y1="32.3332" x2="9.58432" y2="14.9505" gradientUnits="userSpaceOnUse">
<stop stop-color="#D2A374" stop-opacity="0"/>
<stop offset="1" stop-color="#B88653"/>
</linearGradient>
<linearGradient id="paint8_linear_1684_9498" x1="28.4682" y1="33.9946" x2="8.16184" y2="16.6119" gradientUnits="userSpaceOnUse">
<stop stop-color="#D2A374" stop-opacity="0"/>
<stop offset="1" stop-color="#B88653"/>
</linearGradient>
<radialGradient id="paint9_radial_1684_9498" cx="0" cy="0" r="1" gradientUnits="userSpaceOnUse" gradientTransform="translate(14.2778 22.5181) scale(2.28016 2.28053)">
<stop stop-color="#B37E53" stop-opacity="0"/>
<stop offset="1" stop-color="#B37E53"/>
</radialGradient>
<radialGradient id="paint10_radial_1684_9498" cx="0" cy="0" r="1" gradientUnits="userSpaceOnUse" gradientTransform="translate(14.0363 19.5547) scale(2.88797 2.88844)">
<stop stop-color="#B37E53" stop-opacity="0"/>
<stop offset="1" stop-color="#B37E53"/>
</radialGradient>
<linearGradient id="paint11_linear_1684_9498" x1="31.1175" y1="30.8978" x2="10.8111" y2="13.5151" gradientUnits="userSpaceOnUse">
<stop stop-color="#D2A374" stop-opacity="0"/>
<stop offset="1" stop-color="#B88653"/>
</linearGradient>
<radialGradient id="paint12_radial_1684_9498" cx="0" cy="0" r="1" gradientUnits="userSpaceOnUse" gradientTransform="translate(14.2792 22.4156) scale(2.23501 2.23538)">
<stop stop-color="#B37E53" stop-opacity="0"/>
<stop offset="1" stop-color="#B37E53"/>
</radialGradient>
<linearGradient id="paint13_linear_1684_9498" x1="30.5785" y1="31.5263" x2="10.2722" y2="14.1436" gradientUnits="userSpaceOnUse">
<stop stop-color="#B37E53"/>
<stop offset="1" stop-color="#CD9870"/>
</linearGradient>
<linearGradient id="paint14_linear_1684_9498" x1="10.151" y1="22.673" x2="30.2087" y2="22.673" gradientUnits="userSpaceOnUse">
<stop stop-color="#473226" stop-opacity="0"/>
<stop offset="1" stop-color="#3D2A20"/>
</linearGradient>
<linearGradient id="paint15_linear_1684_9498" x1="25.4531" y1="24.9956" x2="29.4871" y2="33.4446" gradientUnits="userSpaceOnUse">
<stop offset="0.00132565" stop-color="#BE8D68"/>
<stop offset="1" stop-color="#CD9870"/>
</linearGradient>
<linearGradient id="paint16_linear_1684_9498" x1="27.6094" y1="27.8484" x2="23.3323" y2="33.22" gradientUnits="userSpaceOnUse">
<stop stop-color="#B37E53"/>
<stop offset="1" stop-color="#CD9870"/>
</linearGradient>
<linearGradient id="paint17_linear_1684_9498" x1="27.3167" y1="24.6803" x2="27.2472" y2="35.1119" gradientUnits="userSpaceOnUse">
<stop offset="0.3118" stop-color="#D2A374" stop-opacity="0"/>
<stop offset="1" stop-color="#D2A374"/>
</linearGradient>
<linearGradient id="paint18_linear_1684_9498" x1="25.7871" y1="31.025" x2="22.104" y2="23.3916" gradientUnits="userSpaceOnUse">
<stop offset="0.00132565" stop-color="#BE8D68"/>
<stop offset="1" stop-color="#CD9870"/>
</linearGradient>
<linearGradient id="paint19_linear_1684_9498" x1="2.08971" y1="4.41284" x2="10.1183" y2="15.431" gradientUnits="userSpaceOnUse">
<stop offset="0.00132565" stop-color="#BE8D68"/>
<stop offset="1" stop-color="#CD9870"/>
</linearGradient>
<linearGradient id="paint20_linear_1684_9498" x1="3.64219" y1="3.28229" x2="11.6708" y2="14.3005" gradientUnits="userSpaceOnUse">
<stop offset="0.00132565" stop-color="#BE8D68"/>
<stop offset="1" stop-color="#CD9870"/>
</linearGradient>
<linearGradient id="paint21_linear_1684_9498" x1="7.18164" y1="0.70254" x2="15.2102" y2="11.7207" gradientUnits="userSpaceOnUse">
<stop offset="0.00132565" stop-color="#BE8D68"/>
<stop offset="1" stop-color="#CD9870"/>
</linearGradient>
<linearGradient id="paint22_linear_1684_9498" x1="5.25554" y1="2.1054" x2="13.2841" y2="13.1236" gradientUnits="userSpaceOnUse">
<stop offset="0.00132565" stop-color="#BE8D68"/>
<stop offset="1" stop-color="#CD9870"/>
</linearGradient>
<linearGradient id="paint23_linear_1684_9498" x1="14.1523" y1="14.0458" x2="32.6154" y2="27.969" gradientUnits="userSpaceOnUse">
<stop stop-color="#A46C3F" stop-opacity="0"/>
<stop offset="1" stop-color="#804B24"/>
</linearGradient>
<linearGradient id="paint24_linear_1684_9498" x1="11.6493" y1="15.3908" x2="32.6938" y2="29.8093" gradientUnits="userSpaceOnUse">
<stop stop-color="#A46C3F" stop-opacity="0"/>
<stop offset="1" stop-color="#804B24"/>
</linearGradient>
<linearGradient id="paint25_linear_1684_9498" x1="10.794" y1="17.6921" x2="32.8554" y2="32.3452" gradientUnits="userSpaceOnUse">
<stop stop-color="#A46C3F" stop-opacity="0"/>
<stop offset="1" stop-color="#804B24"/>
</linearGradient>
<linearGradient id="paint26_linear_1684_9498" x1="10.1254" y1="17.1292" x2="44.7574" y2="46.7494" gradientUnits="userSpaceOnUse">
<stop stop-color="#A46C3F" stop-opacity="0"/>
<stop offset="1" stop-color="#804B24"/>
</linearGradient>
<linearGradient id="paint27_linear_1684_9498" x1="11.3507" y1="15.8306" x2="32.3953" y2="30.2491" gradientUnits="userSpaceOnUse">
<stop stop-color="#A46C3F" stop-opacity="0"/>
<stop offset="1" stop-color="#804B24"/>
</linearGradient>
<linearGradient id="paint28_linear_1684_9498" x1="13.9403" y1="14.3254" x2="32.4034" y2="28.2487" gradientUnits="userSpaceOnUse">
<stop stop-color="#A46C3F" stop-opacity="0"/>
<stop offset="1" stop-color="#804B24"/>
</linearGradient>
<linearGradient id="paint29_linear_1684_9498" x1="21.7617" y1="37.5037" x2="19.9185" y2="15.7017" gradientUnits="userSpaceOnUse">
<stop stop-color="#B37E53"/>
<stop offset="1" stop-color="#CD9870"/>
</linearGradient>
</defs>
</svg>
