<svg width="30" height="30" viewBox="0 0 30 30" fill="none" xmlns="http://www.w3.org/2000/svg">
<path d="M4.64062 16.8799C4.64062 18.2099 5.10063 19.3599 6.03063 20.3099C6.96063 21.2699 8.09063 21.7799 9.43063 21.8399C9.54063 21.8399 9.60063 21.7799 9.60063 21.6699V20.3399C9.60063 20.2199 9.54063 20.1499 9.43063 20.1499C8.57063 20.1099 7.85063 19.7699 7.25063 19.1299C6.65063 18.4899 6.35063 17.7399 6.35063 16.8799C6.35063 16.0599 6.63063 15.3399 7.19063 14.7199C7.75063 14.1099 8.45063 13.7499 9.29063 13.6499H9.82062C9.95062 13.6499 10.0206 13.5899 10.0206 13.4699L10.0806 12.8999C10.1906 11.8199 10.6506 10.9099 11.4606 10.1799C12.2706 9.44994 13.2306 9.07994 14.3206 9.07994C15.4006 9.07994 16.3506 9.44994 17.1706 10.1799C17.9906 10.9099 18.4506 11.8199 18.5606 12.8999L18.6406 13.4699C18.6406 13.5899 18.7006 13.6499 18.8206 13.6499H20.4306C21.3206 13.6499 22.0906 13.9699 22.7406 14.6099C23.3906 15.2499 23.7206 16.0099 23.7206 16.8699C23.7206 17.7299 23.4206 18.4799 22.8206 19.1199C22.2206 19.7599 21.4906 20.0999 20.6406 20.1399C20.5106 20.1399 20.4406 20.1999 20.4406 20.3299V21.6599C20.4406 21.7699 20.5106 21.8299 20.6406 21.8299C21.5106 21.8099 22.3106 21.5699 23.0406 21.1199C23.7706 20.6699 24.3506 20.0699 24.7706 19.3199C25.1906 18.5699 25.4006 17.7499 25.4006 16.8799C25.4006 16.2099 25.2706 15.5699 25.0106 14.9699C24.7619 14.3831 24.4019 13.85 23.9506 13.3999C23.4964 12.9515 22.9599 12.595 22.3706 12.3499C21.7606 12.0899 21.1206 11.9599 20.4506 11.9599H20.1306C19.8226 10.6549 19.0782 9.49421 18.0206 8.66994C16.9798 7.82898 15.6787 7.37643 14.3406 7.38994C12.9306 7.38994 11.6706 7.82994 10.5806 8.70994C9.49062 9.58994 8.79062 10.7099 8.48062 12.0699C7.37062 12.3299 6.46063 12.8999 5.75063 13.7999C4.99063 14.7099 4.64062 15.7299 4.64062 16.8799ZM11.5806 17.5099C11.5806 17.7599 11.6606 17.9699 11.8206 18.1499C11.9706 18.2999 12.1706 18.3799 12.4306 18.3799C12.6706 18.3799 12.8806 18.2999 13.0506 18.1499L14.1606 17.0099V20.9899C14.1606 21.2299 14.2406 21.4299 14.3906 21.5999C14.5506 21.7699 14.7406 21.8499 14.9806 21.8499C15.2106 21.8499 15.4106 21.7699 15.5806 21.5999C15.7506 21.4299 15.8306 21.2299 15.8306 20.9899V17.0499L16.9506 18.1599C17.3506 18.4699 17.7606 18.4699 18.1706 18.1599C18.3306 18.0099 18.4106 17.7999 18.4106 17.5399C18.4106 17.2999 18.3306 17.0999 18.1706 16.9199L15.5806 14.3499C15.5023 14.2711 15.4087 14.2091 15.3055 14.1679C15.2023 14.1266 15.0917 14.1069 14.9806 14.1099C14.7406 14.1099 14.5406 14.1899 14.3906 14.3499L11.8106 16.9199C11.6606 17.0799 11.5806 17.2699 11.5806 17.5099Z" fill="#71759D"/>
</svg>
