<svg width="18" height="16" viewBox="0 0 18 16" fill="none" xmlns="http://www.w3.org/2000/svg">
<path d="M8.05891 1.13875C8.38421 0.27567 9.60509 0.275669 9.93039 1.13875L11.4463 5.16065C11.5931 5.55013 11.9658 5.80796 12.382 5.80796H16.9329C17.9371 5.80796 18.3147 7.12242 17.4637 7.65545L14.0498 9.79368C13.6463 10.0464 13.477 10.5484 13.6448 10.9939L15.0065 14.6065C15.3441 15.5023 14.3513 16.3149 13.5399 15.8067L9.52546 13.2923C9.2008 13.089 8.7885 13.089 8.46384 13.2923L4.44937 15.8067C3.63805 16.3149 2.64518 15.5023 2.98281 14.6065L4.34445 10.9939C4.51234 10.5484 4.34296 10.0464 3.93952 9.79368L0.525627 7.65545C-0.325416 7.12242 0.0522442 5.80796 1.05643 5.80796H5.60729C6.02352 5.80796 6.39623 5.55013 6.54303 5.16065L8.05891 1.13875Z" fill="#CAD1E9"/>
</svg>
