<svg width="19" height="17" viewBox="0 0 19 17" fill="none" xmlns="http://www.w3.org/2000/svg">
<path d="M8.56282 1.31072C8.88812 0.447637 10.109 0.447636 10.4343 1.31072L11.9502 5.33261C12.097 5.7221 12.4697 5.97993 12.8859 5.97993H17.4368C18.441 5.97993 18.8186 7.29438 17.9676 7.82742L14.5537 9.96564C14.1503 10.2183 13.9809 10.7204 14.1488 11.1658L15.5104 14.7785C15.848 15.6743 14.8552 16.4868 14.0438 15.9787L10.0294 13.4643C9.70471 13.2609 9.29241 13.2609 8.96775 13.4643L4.95327 15.9787C4.14195 16.4868 3.14909 15.6743 3.48672 14.7785L4.84836 11.1658C5.01625 10.7204 4.84686 10.2183 4.44343 9.96564L1.02953 7.82742C0.17849 7.29439 0.55615 5.97993 1.56034 5.97993H6.11119C6.52743 5.97993 6.90014 5.7221 7.04694 5.33261L8.56282 1.31072Z" fill="#EBC810"/>
</svg>
